<svg width="20" height="20" viewBox="0 0 20 20" fill="none" xmlns="http://www.w3.org/2000/svg">
<g clip-path="url(#clip0_29296_863)">
<path d="M15.4482 10.6254C15.4784 13.652 18.3009 14.6592 18.3322 14.672C18.3083 14.743 17.8812 16.1074 16.8451 17.5166C15.9495 18.735 15.02 19.9488 13.5557 19.974C12.1169 19.9986 11.6542 19.1799 10.0092 19.1799C8.36476 19.1799 7.85072 19.9489 6.48872 19.9987C5.07531 20.0485 3.99897 18.6812 3.09594 17.4673C1.25064 14.9842 -0.159546 10.4508 1.73398 7.39061C2.67465 5.87092 4.35569 4.90859 6.18031 4.88391C7.56824 4.85927 8.87825 5.753 9.72675 5.753C10.5747 5.753 12.1667 4.67821 13.8403 4.83606C14.5409 4.8632 16.5076 5.09947 17.7704 6.81993C17.6686 6.87864 15.4238 8.09499 15.4482 10.6254ZM12.7441 3.1933C13.4945 2.34789 13.9995 1.171 13.8617 0C12.7801 0.0404618 11.4722 0.670851 10.6963 1.5158C10.0011 2.26404 9.39213 3.46164 9.55643 4.60946C10.762 4.69628 11.9937 4.03925 12.7441 3.1933Z" fill="#32343D"/>
</g>
<defs>
<clipPath id="clip0_29296_863">
<rect width="17.5" height="20" fill="white" transform="translate(0.833344)"/>
</clipPath>
</defs>
</svg>
