<svg width="38" height="47" viewBox="0 0 38 47" fill="none" xmlns="http://www.w3.org/2000/svg">
<path d="M34.6464 0H3.35357C1.50445 0 0 1.50445 0 3.3539V43.2157C0 45.0652 1.50445 46.5696 3.35357 46.5696H34.6464C36.4955 46.5696 38 45.0652 38 43.2157V3.3539C38 1.50445 36.4955 0 34.6464 0ZM36.6654 43.2157C36.6654 44.3291 35.7595 45.235 34.6464 45.235H3.35357C2.2405 45.235 1.33462 44.3291 1.33462 43.2157V3.3539C1.33462 2.2405 2.2405 1.33462 3.35357 1.33462H34.6464C35.7595 1.33462 36.6654 2.2405 36.6654 3.3539V43.2157Z" fill="#0D9D57"/>
<path d="M33.1819 3.38379H4.81957C4.03348 3.38379 3.39453 4.02307 3.39453 4.80883V18.3569C3.39453 19.1427 4.03348 19.7819 4.81957 19.7819H33.1819C33.9677 19.7819 34.6067 19.1427 34.6067 18.3569V4.80883C34.6067 4.02307 33.9677 3.38379 33.1819 3.38379ZM33.272 18.3569C33.272 18.407 33.2317 18.4473 33.1819 18.4473H4.81957C4.76952 18.4473 4.72915 18.407 4.72915 18.3569V4.80883C4.72915 4.75878 4.76952 4.71841 4.81957 4.71841H33.1819C33.2317 4.71841 33.272 4.75878 33.272 4.80883V18.3569Z" fill="#0D9D57"/>
<path d="M22.3244 22.5537H15.6743C14.9336 22.5537 14.3311 23.1563 14.3311 23.8969V30.547C14.3311 31.2877 14.9336 31.8903 15.6743 31.8903H22.3244C23.065 31.8903 23.6676 31.2877 23.6676 30.547V23.8969C23.6676 23.1563 23.0651 22.5537 22.3244 22.5537ZM22.333 30.547C22.333 30.5518 22.3291 30.5556 22.3244 30.5556H15.6743C15.6695 30.5556 15.6657 30.5518 15.6657 30.547V23.8969C15.6657 23.8922 15.6695 23.8883 15.6743 23.8883H22.3244C22.3291 23.8883 22.333 23.8922 22.333 23.8969V30.547Z" fill="#0D9D57"/>
<path d="M11.3879 22.5537H4.73776C3.99711 22.5537 3.39453 23.1563 3.39453 23.8969V30.547C3.39453 31.2877 3.99711 31.8903 4.73776 31.8903H11.3879C12.1285 31.8903 12.7311 31.2877 12.7311 30.547V23.8969C12.7311 23.1563 12.1285 22.5537 11.3879 22.5537ZM11.3965 30.547C11.3965 30.5518 11.3926 30.5556 11.3879 30.5556H4.73776C4.73299 30.5556 4.72915 30.5518 4.72915 30.547V23.8969C4.72915 23.8922 4.73299 23.8883 4.73776 23.8883H11.3879C11.3926 23.8883 11.3965 23.8922 11.3965 23.8969V30.547Z" fill="#0D9D57"/>
<path d="M33.2639 22.5537H26.6138C25.8731 22.5537 25.2705 23.1563 25.2705 23.897V41.5944C25.2705 42.3351 25.8731 42.9377 26.6138 42.9377H33.2639C34.0043 42.9377 34.6068 42.3351 34.6068 41.5944V23.897C34.6068 23.1563 34.0043 22.5537 33.2639 22.5537ZM33.2722 41.5944C33.2722 41.5991 33.2686 41.6031 33.2639 41.6031H26.6138C26.6088 41.6031 26.6051 41.5991 26.6051 41.5944V23.897C26.6051 23.892 26.6088 23.8883 26.6138 23.8883H33.2639C33.2686 23.8883 33.2722 23.892 33.2722 23.897V41.5944Z" fill="#0D9D57"/>
<path d="M22.3244 33.6035H15.6743C14.9336 33.6035 14.3311 34.2061 14.3311 34.9467V41.5968C14.3311 42.3375 14.9336 42.9401 15.6743 42.9401H22.3244C23.065 42.9401 23.6676 42.3375 23.6676 41.5968V34.9467C23.6676 34.2061 23.0651 33.6035 22.3244 33.6035ZM22.333 41.5968C22.333 41.6016 22.3291 41.6054 22.3244 41.6054H15.6743C15.6695 41.6054 15.6657 41.6016 15.6657 41.5968V34.9467C15.6657 34.942 15.6695 34.9381 15.6743 34.9381H22.3244C22.3291 34.9381 22.333 34.942 22.333 34.9467V41.5968Z" fill="#0D9D57"/>
<path d="M11.3879 33.6035H4.73776C3.99711 33.6035 3.39453 34.2061 3.39453 34.9467V41.5968C3.39453 42.3375 3.99711 42.9401 4.73776 42.9401H11.3879C12.1285 42.9401 12.7311 42.3375 12.7311 41.5968V34.9467C12.7311 34.2061 12.1285 33.6035 11.3879 33.6035ZM11.3965 41.5968C11.3965 41.6016 11.3926 41.6054 11.3879 41.6054H4.73776C4.73299 41.6054 4.72915 41.6016 4.72915 41.5968V34.9467C4.72915 34.942 4.73299 34.9381 4.73776 34.9381H11.3879C11.3926 34.9381 11.3965 34.942 11.3965 34.9467V41.5968Z" fill="#0D9D57"/>
</svg>
