<svg width="19" height="18" viewBox="0 0 19 18" fill="none" xmlns="http://www.w3.org/2000/svg">
<path d="M7.53621 9.26435C10.0898 9.26435 12.1705 7.18793 12.1705 4.63002C12.1705 2.07212 10.0941 0 7.53621 0C4.9783 0 2.90189 2.07642 2.90189 4.63432C2.90189 7.19223 4.9826 9.26435 7.53621 9.26435ZM7.53621 0.4299C9.85337 0.4299 11.7406 2.31716 11.7406 4.63432C11.7406 6.95148 9.85337 8.83875 7.53621 8.83875C5.21905 8.83875 3.33179 6.95148 3.33179 4.63432C3.33179 2.31716 5.21905 0.4299 7.53621 0.4299Z" fill="#047D3F"/>
<path d="M7.53621 7.84994C9.3117 7.84994 10.7562 6.40547 10.7562 4.62999C10.7562 2.8545 9.3117 1.41003 7.53621 1.41003C5.76073 1.41003 4.31626 2.8545 4.31626 4.62999C4.32056 6.40547 5.76503 7.84994 7.53621 7.84994ZM7.53621 1.84423C9.07526 1.84423 10.3263 3.09524 10.3263 4.63428C10.3263 6.17333 9.07526 7.42434 7.53621 7.42434C5.99717 7.42434 4.74616 6.17333 4.74616 4.63428C4.74616 3.09524 6.00147 1.84423 7.53621 1.84423Z" fill="#047D3F"/>
<path d="M7.57562 6.62465C8.01842 6.62465 8.41393 6.36241 8.59019 5.954C8.63748 5.84653 8.58589 5.71756 8.47841 5.67027C8.37094 5.62298 8.24197 5.67457 8.19468 5.78204C8.0872 6.03139 7.84646 6.19045 7.57562 6.19045C7.20591 6.19045 6.90498 5.88952 6.90498 5.5198C6.90498 5.15439 7.19731 4.84916 7.54123 4.84916C8.1216 4.84916 8.60738 4.34618 8.60738 3.74862C8.60738 3.14246 8.113 2.64807 7.50684 2.64807C7.06404 2.64807 6.66853 2.91031 6.49227 3.31872C6.44499 3.42619 6.49657 3.55516 6.60405 3.60245C6.71152 3.64974 6.84049 3.59815 6.88778 3.49068C6.99526 3.24133 7.236 3.08227 7.50684 3.08227C7.87655 3.08227 8.17748 3.3832 8.17748 3.75291C8.17748 4.11833 7.88515 4.42356 7.54123 4.42356C6.96087 4.42356 6.47508 4.92654 6.47508 5.5241C6.47078 6.13026 6.96516 6.62465 7.57562 6.62465Z" fill="#047D3F"/>
<path d="M7.50197 3.07364C7.62234 3.07364 7.71692 2.97906 7.71692 2.85869V2.49327C7.71692 2.3729 7.62234 2.27832 7.50197 2.27832C7.3816 2.27832 7.28702 2.3729 7.28702 2.49327V2.85869C7.28702 2.97906 7.3859 3.07364 7.50197 3.07364Z" fill="#047D3F"/>
<path d="M7.50197 6.98574C7.62234 6.98574 7.71692 6.89117 7.71692 6.77079V6.40538C7.71692 6.28501 7.62234 6.19043 7.50197 6.19043C7.3816 6.19043 7.28702 6.28501 7.28702 6.40538V6.77079C7.28702 6.89117 7.3859 6.98574 7.50197 6.98574Z" fill="#047D3F"/>
<path d="M8.77012 17.3765C10.1673 17.3765 12.1491 16.8692 14.4491 14.8186L16.5341 16.0223C16.5857 16.0524 16.6416 16.0567 16.6975 16.0438C16.7534 16.0309 16.8007 15.9922 16.8264 15.9449L18.9716 12.2306C19.0017 12.1833 19.006 12.1231 18.9931 12.0672C18.9802 12.0113 18.9416 11.964 18.8943 11.9383L13.7312 8.95905C13.7269 8.95475 13.7226 8.95475 13.7183 8.95045C11.8568 8.05626 11.1948 8.94185 10.3565 10.0639C9.67291 10.9796 8.31013 11.4396 7.5535 11.6287C6.59053 11.8738 6.11764 12.3037 5.88119 12.682L2.46779 10.7087C1.68107 10.2573 0.675102 10.5239 0.219408 11.3106C0.000160217 11.6889 -0.055727 12.1317 0.0560474 12.5573C0.167822 12.9829 0.442957 13.3397 0.821268 13.559L6.60343 16.895C6.67651 16.938 7.47182 17.3765 8.77012 17.3765ZM14.4233 14.3414C14.3717 14.3414 14.3201 14.3586 14.2771 14.3973C12.5103 16.0051 10.6746 16.8864 8.95928 16.9466C7.62229 16.9939 6.83127 16.5339 6.82267 16.5253C6.82267 16.5253 6.81837 16.5253 6.81837 16.521L1.03622 13.185C0.756784 13.0216 0.554731 12.7594 0.473051 12.4455C0.391369 12.1317 0.430059 11.805 0.593422 11.5256C0.756784 11.2461 1.01902 11.0441 1.33285 10.9624C1.64668 10.8807 1.9734 10.9194 2.25284 11.0828L5.70493 13.0775C5.69634 13.099 5.69204 13.1248 5.68774 13.1463C5.55877 13.6879 5.75222 14.264 6.19502 14.6466C6.7066 15.0894 7.43313 15.1926 8.14247 14.9175L10.8766 14.0749C10.9884 14.0405 11.0529 13.9201 11.0185 13.804C10.9841 13.6879 10.8637 13.6278 10.7477 13.6622L8.0049 14.5048C8.0006 14.5048 7.9963 14.5091 7.9877 14.5091C7.42883 14.7283 6.86137 14.6552 6.47016 14.3156C6.14773 14.0362 6.00586 13.6235 6.09614 13.2366C6.10904 13.1807 6.12624 13.1248 6.15203 13.0689C6.15633 13.0603 6.16063 13.0517 6.16493 13.0431C6.36698 12.5874 6.88716 12.2349 7.65668 12.0371C8.46489 11.8308 9.93515 11.3321 10.6961 10.3132C11.586 9.11811 12.046 8.61943 13.5205 9.32446L18.4945 12.2005L16.5642 15.5451L14.5308 14.3715C14.4964 14.35 14.4577 14.3414 14.4233 14.3414Z" fill="#047D3F"/>
<path d="M14.4232 14.7716C14.4963 14.7716 14.5694 14.7329 14.6081 14.6641L16.7533 10.9498C16.8135 10.8466 16.7791 10.7133 16.6759 10.6574C16.5727 10.5972 16.4438 10.6316 16.3836 10.7348L14.2384 14.4491C14.1782 14.5523 14.2126 14.6856 14.3157 14.7415C14.3501 14.763 14.3845 14.7716 14.4232 14.7716Z" fill="#047D3F"/>
<path d="M7.58771 12.0545C7.6608 12.0545 7.73388 12.0158 7.77257 11.9471C7.83276 11.8439 7.79836 11.7106 7.69519 11.6547L4.35916 9.72877C3.69712 9.34616 2.85021 9.57401 2.4676 10.2361C2.32144 10.4854 2.27845 10.7863 2.28275 10.9884C2.28704 11.1045 2.38162 11.199 2.4977 11.199H2.50199C2.62237 11.1947 2.71265 11.0959 2.71265 10.9798C2.70835 10.8465 2.73844 10.6273 2.83732 10.4553C3.09956 9.99961 3.68422 9.84485 4.13991 10.1071L7.47594 12.033C7.51463 12.0459 7.55332 12.0545 7.58771 12.0545Z" fill="#047D3F"/>
</svg>
