<svg width="28" height="28" viewBox="0 0 28 28" fill="none" xmlns="http://www.w3.org/2000/svg">
<path d="M14.0009 27.9999C12.2095 27.9999 10.5255 27.3023 9.25895 26.0357C7.99237 24.7692 7.29492 23.0854 7.29492 21.294C7.29492 19.5031 7.99237 17.8189 9.25895 16.5524C9.49633 16.3146 9.88168 16.3146 10.1193 16.5524C10.3568 16.7899 10.3568 17.1751 10.1193 17.4127C9.08262 18.4495 8.51183 19.828 8.51183 21.294C8.51183 22.7603 9.08282 24.1386 10.1193 25.1754C11.1561 26.2123 12.5347 26.783 14.0009 26.783C15.467 26.783 16.8456 26.2121 17.8824 25.1754C18.9193 24.1388 19.4901 22.7603 19.4901 21.294C19.4901 19.828 18.9191 18.4495 17.8824 17.4127C17.6448 17.1751 17.6448 16.7897 17.8824 16.5524C18.12 16.3146 18.5051 16.3146 18.7427 16.5524C20.0093 17.8189 20.707 19.5029 20.707 21.294C20.707 23.0854 20.0093 24.7694 18.7427 26.0357C17.4762 27.3025 15.7922 27.9999 14.0009 27.9999Z" fill="#0D9D57"/>
<path d="M14.0015 26.5082C12.3367 26.5082 10.9824 25.154 10.9824 23.4892C10.9824 21.8245 12.3367 20.4702 14.0015 20.4702C15.6663 20.4702 17.0208 21.8245 17.0208 23.4892C17.0208 25.154 15.6663 26.5082 14.0015 26.5082ZM14.0015 21.6869C13.0077 21.6869 12.1993 22.4952 12.1993 23.489C12.1993 24.4828 13.0077 25.2912 14.0015 25.2912C14.9953 25.2912 15.8037 24.4828 15.8037 23.489C15.8037 22.4952 14.9953 21.6869 14.0015 21.6869Z" fill="#0D9D57"/>
<path d="M21.293 20.7057C19.5018 20.7057 17.8178 20.008 16.5512 18.7415C16.3137 18.5039 16.3137 18.1186 16.5512 17.8812C16.7888 17.6436 17.174 17.6436 17.4116 17.8812C18.4484 18.918 19.8269 19.4888 21.293 19.4888C22.7593 19.4888 24.1379 18.9178 25.1745 17.8812C26.2114 16.8444 26.7821 15.4659 26.7821 13.9998C26.7821 12.5336 26.2112 11.1551 25.1745 10.1182C24.1377 9.0816 22.7593 8.51062 21.293 8.51062C19.8269 8.51062 18.4484 9.0816 17.4116 10.1182C17.174 10.3558 16.7886 10.3558 16.5512 10.1182C16.3137 9.88064 16.3137 9.4953 16.5512 9.25792C17.8178 7.99138 19.502 7.29395 21.293 7.29395C23.0844 7.29395 24.7685 7.99159 26.0348 9.25792C27.3014 10.5245 27.9991 12.2084 27.9991 13.9998C27.9991 15.791 27.3014 17.475 26.0348 18.7415C24.7687 20.008 23.0844 20.7057 21.293 20.7057Z" fill="#0D9D57"/>
<path d="M23.4878 17.0187C21.8231 17.0187 20.4688 15.6644 20.4688 13.9997C20.4688 12.3348 21.8231 10.9805 23.4878 10.9805C25.1528 10.9805 26.5071 12.3348 26.5071 13.9997C26.5071 15.6642 25.1526 17.0187 23.4878 17.0187ZM23.4878 12.1971C22.494 12.1971 21.6857 13.0057 21.6857 13.9995C21.6857 14.9933 22.494 15.8016 23.4878 15.8016C24.4816 15.8016 25.2902 14.9933 25.2902 13.9995C25.2902 13.0057 24.4816 12.1971 23.4878 12.1971Z" fill="#0D9D57"/>
<path d="M18.3127 11.6257C18.1571 11.6257 18.0012 11.5663 17.8824 11.4476C17.6448 11.21 17.6448 10.8246 17.8824 10.5873C18.9193 9.55063 19.4901 8.17213 19.4901 6.70587C19.4901 5.23982 18.9191 3.86131 17.8824 2.82448C16.8456 1.78765 15.467 1.21688 14.0009 1.21688C12.5347 1.21688 11.1561 1.78786 10.1193 2.82448C9.08262 3.86131 8.51183 5.23982 8.51183 6.70587C8.51183 8.17213 9.08282 9.55042 10.1193 10.5873C10.3568 10.8248 10.3568 11.2102 10.1193 11.4476C9.88168 11.6853 9.49653 11.6853 9.25895 11.4476C7.99237 10.1812 7.29492 8.49725 7.29492 6.70587C7.29492 4.91491 7.99237 3.23073 9.25895 1.96418C10.5255 0.697635 12.2095 0 14.0009 0C15.7922 0 17.4762 0.697635 18.7427 1.96418C20.0093 3.23073 20.707 4.9147 20.707 6.70587C20.707 8.49725 20.0093 10.1812 18.7427 11.4476C18.6239 11.5663 18.4683 11.6257 18.3127 11.6257Z" fill="#0D9D57"/>
<path d="M14.0015 7.52973C12.3367 7.52973 10.9824 6.17544 10.9824 4.51072C10.9824 2.846 12.3367 1.4917 14.0015 1.4917C15.6663 1.4917 17.0208 2.846 17.0208 4.51072C17.0208 6.17544 15.6663 7.52973 14.0015 7.52973ZM14.0015 2.70837C13.0077 2.70837 12.1993 3.51673 12.1993 4.51051C12.1993 5.50429 13.0077 6.31265 14.0015 6.31265C14.9953 6.31265 15.8037 5.50429 15.8037 4.51051C15.8037 3.51673 14.9953 2.70837 14.0015 2.70837Z" fill="#0D9D57"/>
<path d="M6.70602 20.7057C4.91481 20.7057 3.2308 20.008 1.96423 18.7415C0.697651 17.475 0 15.791 0 13.9998C0 12.2084 0.697651 10.5245 1.96423 9.25792C3.2308 7.99138 4.91502 7.29395 6.70602 7.29395C8.49744 7.29395 10.1814 7.99159 11.4478 9.25792C11.6854 9.49551 11.6854 9.88085 11.4478 10.1182C11.2102 10.3558 10.8251 10.3558 10.5875 10.1182C9.55064 9.0816 8.17231 8.51062 6.70602 8.51062C5.23994 8.51062 3.86161 9.0816 2.82455 10.1182C1.78769 11.1551 1.21691 12.5336 1.21691 13.9998C1.21691 15.4659 1.7879 16.8444 2.82455 17.8812C3.8614 18.918 5.23994 19.4888 6.70602 19.4888C8.17231 19.4888 9.55085 18.9178 10.5875 17.8812C10.8249 17.6436 11.2102 17.6436 11.4478 17.8812C11.6854 18.1188 11.6854 18.5039 11.4478 18.7415C10.1814 20.008 8.49744 20.7057 6.70602 20.7057Z" fill="#0D9D57"/>
<path d="M4.51128 17.0187C2.84652 17.0187 1.49219 15.6644 1.49219 13.9997C1.49219 12.3348 2.84652 10.9805 4.51128 10.9805C6.17604 10.9805 7.53036 12.3348 7.53036 13.9997C7.53056 15.6642 6.17604 17.0187 4.51128 17.0187ZM4.51128 12.1971C3.51747 12.1971 2.70909 13.0057 2.70909 13.9995C2.70909 14.9933 3.51747 15.8016 4.51128 15.8016C5.50508 15.8016 6.31346 14.9933 6.31346 13.9995C6.31346 13.0057 5.50508 12.1971 4.51128 12.1971Z" fill="#0D9D57"/>
</svg>
