<svg width="26" height="26" viewBox="0 0 26 26" fill="none" xmlns="http://www.w3.org/2000/svg">
<path d="M13.0003 26.0003L3.73971 16.4615C1.75603 14.4179 1.75603 11.093 3.73971 9.04946C4.70071 8.05957 5.97853 7.51437 7.33742 7.51437C8.69652 7.51437 9.97414 8.05936 10.9349 9.04946C11.1717 9.29338 11.1717 9.68878 10.9349 9.93291C10.6981 10.1768 10.3143 10.1768 10.0775 9.93291C9.34543 9.17907 8.37247 8.76391 7.33742 8.76391C6.30216 8.76391 5.3292 9.17907 4.59716 9.93312C3.08625 11.4895 3.08625 14.0219 4.59716 15.5782L13.0003 24.2336L21.4032 15.578C22.1353 14.8242 22.5383 13.8217 22.5383 12.7556C22.5383 11.6894 22.1353 10.687 21.4032 9.93291C20.6712 9.17886 19.6982 8.76369 18.6629 8.76369C17.6279 8.76369 16.6547 9.17886 15.9229 9.9327C15.6863 10.1766 15.3022 10.1766 15.0654 9.9327C14.8286 9.68878 14.8286 9.29317 15.0654 9.04925C16.0264 8.05936 17.3041 7.51416 18.6632 7.51416C20.0225 7.51416 21.3001 8.05914 22.2609 9.04925C23.2219 10.0391 23.7512 11.3554 23.7512 12.7551C23.7512 14.1551 23.2219 15.4711 22.2609 16.461L13.0003 26.0003Z" fill="#0D9D57"/>
<path d="M4.29015 8.83898C3.14434 8.83898 2.0668 8.37919 1.25658 7.54461C0.446152 6.70982 0 5.60009 0 4.41961C0 3.23913 0.446152 2.1294 1.25658 1.29461C2.0668 0.460029 3.14434 0.000244141 4.29015 0.000244141C5.43617 0.000244141 6.51372 0.460029 7.32393 1.29461C8.13436 2.1294 8.58052 3.23913 8.58052 4.41961C8.58052 5.60009 8.13436 6.70982 7.32393 7.54461C6.51372 8.37919 5.43617 8.83898 4.29015 8.83898ZM4.29015 1.24914C3.46818 1.24914 2.6955 1.57889 2.11403 2.17784C1.53277 2.77658 1.21265 3.57271 1.21265 4.4194C1.21265 5.2663 1.53277 6.06221 2.11403 6.66095C2.6955 7.25969 3.46818 7.58966 4.29015 7.58966C5.11233 7.58966 5.88502 7.2599 6.46648 6.66095C7.04775 6.06221 7.36787 5.2663 7.36787 4.4194C7.36787 3.57271 7.04775 2.77658 6.46648 2.17784C5.88502 1.57911 5.11233 1.24914 4.29015 1.24914Z" fill="#0D9D57"/>
<path d="M21.7103 8.83873C20.5643 8.83873 19.4867 8.37895 18.6765 7.54437C17.8661 6.70958 17.4199 5.59985 17.4199 4.41937C17.4199 3.23889 17.8661 2.12916 18.6765 1.29436C19.4867 0.459785 20.5643 0 21.7103 0C22.8563 0 23.9338 0.459785 24.7439 1.29458C25.5543 2.12937 26.0004 3.2391 26.0004 4.41958C26.0004 5.60006 25.5543 6.70979 24.7439 7.54458C23.9338 8.37895 22.8563 8.83873 21.7103 8.83873ZM21.7103 1.2489C20.8881 1.2489 20.1154 1.57865 19.534 2.1776C18.9527 2.77634 18.6326 3.57246 18.6326 4.41915C18.6326 5.26606 18.9527 6.06197 19.534 6.66071C20.1154 7.25945 20.8881 7.58941 21.7103 7.58941C22.5323 7.58941 23.3051 7.25966 23.8864 6.66092C24.4677 6.06218 24.7878 5.26606 24.7878 4.41937C24.7878 3.57268 24.4677 2.77655 23.8864 2.17781C23.3051 1.57886 22.5323 1.2489 21.7103 1.2489Z" fill="#0D9D57"/>
<path d="M12.9999 18.3184C12.0606 18.3184 11.1774 17.9416 10.513 17.2573C9.14151 15.8446 9.14151 13.5463 10.513 12.1336C11.1774 11.4492 12.0606 11.0725 12.9999 11.0725C13.9393 11.0725 14.8225 11.4492 15.4869 12.1336C16.8584 13.5463 16.8584 15.8446 15.4869 17.2573C14.8227 17.9414 13.9395 18.3184 12.9999 18.3184ZM12.9999 12.3218C12.3844 12.3218 11.8057 12.5687 11.3704 13.017C10.4719 13.9423 10.4719 15.4483 11.3704 16.3736C11.8057 16.8219 12.3842 17.0688 12.9999 17.0688C13.6154 17.0688 14.1942 16.8219 14.6295 16.3736C15.528 15.4483 15.528 13.9423 14.6295 13.017C14.1942 12.5687 13.6157 12.3218 12.9999 12.3218Z" fill="#0D9D57"/>
<path d="M7.73811 20.234C7.69726 20.234 7.6558 20.2298 7.61434 20.2211C7.28617 20.1509 7.07557 19.8206 7.14364 19.4825C7.78761 16.2817 9.80573 15.0455 9.89133 14.9945C10.1809 14.8218 10.552 14.9236 10.7201 15.2221C10.8872 15.5195 10.7896 15.9003 10.5021 16.0739C10.4289 16.1189 8.85876 17.115 8.33112 19.7362C8.27193 20.0313 8.01945 20.234 7.73811 20.234Z" fill="#0D9D57"/>
<path d="M18.2609 20.2341C17.9795 20.2341 17.7273 20.0312 17.6679 19.7361C17.1324 17.0766 15.5161 16.0852 15.4998 16.0754C15.21 15.9025 15.1112 15.5202 15.2791 15.2217C15.4468 14.923 15.8181 14.8212 16.1077 14.9942C16.1933 15.0452 18.2112 16.2813 18.8553 19.4822C18.9234 19.82 18.7128 20.1506 18.3848 20.2207C18.3432 20.2298 18.3015 20.2341 18.2609 20.2341Z" fill="#0D9D57"/>
</svg>
