<svg width="16" height="16" viewBox="0 0 16 16" fill="none" xmlns="http://www.w3.org/2000/svg">
<path d="M3.37405 14.0302L3.81489 13.4235L3.37405 14.0302ZM2.63661 13.2928L3.24337 12.8519L2.63661 13.2928ZM13.3634 13.2928L12.7566 12.8519L13.3634 13.2928ZM12.626 14.0302L12.1851 13.4235L12.626 14.0302ZM12.626 1.97011L12.1851 2.57687L12.626 1.97011ZM13.3634 2.70755L12.7566 3.14838L13.3634 2.70755ZM3.37405 1.97011L3.81489 2.57687L3.37405 1.97011ZM2.63661 2.70755L3.24337 3.14838L2.63661 2.70755ZM5.33333 9.91683C4.91912 9.91683 4.58333 10.2526 4.58333 10.6668C4.58333 11.081 4.91912 11.4168 5.33333 11.4168V10.6668V9.91683ZM10.6667 11.4168C11.0809 11.4168 11.4167 11.081 11.4167 10.6668C11.4167 10.2526 11.0809 9.91683 10.6667 9.91683V10.6668V11.4168ZM5.33333 7.25016C4.91912 7.25016 4.58333 7.58595 4.58333 8.00016C4.58333 8.41438 4.91912 8.75016 5.33333 8.75016V8.00016V7.25016ZM10.6667 8.75016C11.0809 8.75016 11.4167 8.41438 11.4167 8.00016C11.4167 7.58595 11.0809 7.25016 10.6667 7.25016V8.00016V8.75016ZM5.33333 4.5835C4.91912 4.5835 4.58333 4.91928 4.58333 5.3335C4.58333 5.74771 4.91912 6.0835 5.33333 6.0835V5.3335V4.5835ZM10.6667 6.0835C11.0809 6.0835 11.4167 5.74771 11.4167 5.3335C11.4167 4.91928 11.0809 4.5835 10.6667 4.5835V5.3335V6.0835ZM14 7.3335H13.25V8.66683H14H14.75V7.3335H14ZM2 8.66683H2.75V7.3335H2H1.25V8.66683H2ZM8 14.6668V13.9168C6.73338 13.9168 5.84366 13.9158 5.15896 13.8416C4.48829 13.769 4.10384 13.6334 3.81489 13.4235L3.37405 14.0302L2.93321 14.637C3.52048 15.0637 4.19909 15.2464 4.99739 15.3329C5.78165 15.4179 6.7668 15.4168 8 15.4168V14.6668ZM2 8.66683H1.25C1.25 9.90003 1.24897 10.8852 1.33394 11.6694C1.42043 12.4677 1.60317 13.1463 2.02985 13.7336L2.63661 13.2928L3.24337 12.8519C3.03344 12.563 2.89788 12.1785 2.82521 11.5079C2.75103 10.8232 2.75 9.93345 2.75 8.66683H2ZM3.37405 14.0302L3.81489 13.4235C3.59558 13.2641 3.40271 13.0713 3.24337 12.8519L2.63661 13.2928L2.02985 13.7336C2.28171 14.0803 2.58656 14.3851 2.93321 14.637L3.37405 14.0302ZM14 8.66683H13.25C13.25 9.93345 13.249 10.8232 13.1748 11.5079C13.1021 12.1785 12.9666 12.563 12.7566 12.8519L13.3634 13.2928L13.9702 13.7336C14.3968 13.1463 14.5796 12.4677 14.6661 11.6694C14.751 10.8852 14.75 9.90003 14.75 8.66683H14ZM8 14.6668V15.4168C9.2332 15.4168 10.2184 15.4179 11.0026 15.3329C11.8009 15.2464 12.4795 15.0637 13.0668 14.637L12.626 14.0302L12.1851 13.4235C11.8962 13.6334 11.5117 13.769 10.841 13.8416C10.1563 13.9158 9.26662 13.9168 8 13.9168V14.6668ZM13.3634 13.2928L12.7566 12.8519C12.5973 13.0713 12.4044 13.2641 12.1851 13.4235L12.626 14.0302L13.0668 14.637C13.4134 14.3851 13.7183 14.0803 13.9702 13.7336L13.3634 13.2928ZM8 1.3335V2.0835C9.26662 2.0835 10.1563 2.08453 10.841 2.15871C11.5117 2.23137 11.8962 2.36693 12.1851 2.57687L12.626 1.97011L13.0668 1.36334C12.4795 0.936667 11.8009 0.753926 11.0026 0.667436C10.2184 0.582467 9.2332 0.583496 8 0.583496V1.3335ZM14 7.3335H14.75C14.75 6.10029 14.751 5.11514 14.6661 4.33088C14.5796 3.53259 14.3968 2.85398 13.9702 2.26671L13.3634 2.70755L12.7566 3.14838C12.9666 3.43733 13.1021 3.82178 13.1748 4.49245C13.249 5.17716 13.25 6.06688 13.25 7.3335H14ZM12.626 1.97011L12.1851 2.57687C12.4044 2.73621 12.5973 2.92907 12.7566 3.14838L13.3634 2.70755L13.9702 2.26671C13.7183 1.92005 13.4134 1.6152 13.0668 1.36334L12.626 1.97011ZM8 1.3335V0.583496C6.7668 0.583496 5.78165 0.582467 4.99739 0.667436C4.19909 0.753926 3.52048 0.936667 2.93321 1.36334L3.37405 1.97011L3.81489 2.57687C4.10384 2.36693 4.48829 2.23137 5.15896 2.15871C5.84366 2.08453 6.73338 2.0835 8 2.0835V1.3335ZM2 7.3335H2.75C2.75 6.06688 2.75103 5.17716 2.82521 4.49245C2.89788 3.82178 3.03344 3.43733 3.24337 3.14838L2.63661 2.70755L2.02985 2.26671C1.60317 2.85398 1.42043 3.53259 1.33394 4.33088C1.24897 5.11514 1.25 6.10029 1.25 7.3335H2ZM3.37405 1.97011L2.93321 1.36334C2.58656 1.6152 2.28171 1.92005 2.02985 2.26671L2.63661 2.70755L3.24337 3.14838C3.40271 2.92907 3.59558 2.73621 3.81489 2.57687L3.37405 1.97011ZM5.33333 10.6668V11.4168H10.6667V10.6668V9.91683H5.33333V10.6668ZM5.33333 8.00016V8.75016H10.6667V8.00016V7.25016H5.33333V8.00016ZM5.33333 5.3335V6.0835H10.6667V5.3335V4.5835H5.33333V5.3335Z" fill="#838589"/>
</svg>
