<svg width="22" height="22" viewBox="0 0 22 22" fill="none" xmlns="http://www.w3.org/2000/svg">
<path d="M21.285 5.32249C20.9833 4.5808 20.5823 3.89402 20.1034 3.2803C19.6372 2.68269 19.0924 2.1625 18.5019 1.72447C17.9084 1.28421 17.2635 0.933346 16.5945 0.661856C15.9153 0.386188 15.2112 0.20544 14.4955 0.0992395C13.7974 -0.00436222 13.0899 -0.0271535 12.3876 0.0323061C11.6664 0.0933902 10.9487 0.234358 10.2552 0.465512C9.56885 0.694299 8.90137 1.00938 8.28106 1.41046C7.6619 1.81076 7.08435 2.30119 6.57938 2.86813C6.04605 3.4669 5.59397 4.15465 5.2353 4.89824C4.804 5.79241 4.48664 6.76409 4.35321 7.77129C4.23043 8.69776 4.25046 9.63533 4.43098 10.5512C4.59955 11.4064 4.90923 12.2309 5.32489 12.9723C5.74918 13.7291 6.28318 14.4108 6.89247 14.9876C7.52506 15.5864 8.23099 16.0841 8.98807 16.4611C9.77857 16.8547 10.6113 17.13 11.4682 17.2672C12.3903 17.415 13.3164 17.4157 14.2391 17.2732C14.703 17.2016 15.1621 17.0929 15.6123 16.9483C16.1073 16.7894 16.5899 16.583 17.0718 16.381C17.4678 16.2152 17.8629 16.0412 18.2409 15.8284C18.4135 15.7312 18.5823 15.6255 18.7471 15.5125C18.8351 15.4522 18.9221 15.3899 19.0081 15.3261C19.0509 15.2944 19.0934 15.2624 19.1358 15.23C19.1572 15.2136 19.1821 15.1988 19.2014 15.1794C19.212 15.1688 19.2406 15.1575 19.1823 15.1854C19.154 15.1989 19.1089 15.2099 19.0877 15.2099C19.0875 15.2099 18.9931 15.1938 19.0472 15.2064C19.1096 15.221 18.9791 15.1683 19.0339 15.1995C19.0743 15.2224 19.1145 15.2452 19.1541 15.2699C19.2688 15.3415 19.3816 15.4172 19.4956 15.4902C19.7987 15.6843 20.1112 15.8687 20.4429 15.9944C20.7657 16.1167 21.137 16.177 21.4511 15.9935C21.6339 15.8866 21.7842 15.6815 21.8261 15.4538C21.8718 15.2065 21.8228 14.958 21.7378 14.7283C21.5402 14.1942 21.2283 13.7263 20.9895 13.2158C20.9895 13.3187 20.9895 13.4215 20.9895 13.5243C21.4459 12.5483 21.7681 11.4917 21.9102 10.4005C22.053 9.30424 22.0297 8.19247 21.8195 7.10846C21.7001 6.49247 21.5166 5.89662 21.285 5.32249C21.226 5.17628 21.0263 5.12986 20.9113 5.21286C20.7763 5.31024 20.7503 5.4746 20.8133 5.63102C20.8286 5.66876 20.8437 5.70659 20.8585 5.74456C20.8659 5.76349 20.8732 5.78248 20.8805 5.80151C20.8648 5.76053 20.883 5.80824 20.8852 5.81409C20.9149 5.8949 20.9439 5.97613 20.9716 6.05787C21.0251 6.21559 21.0743 6.37508 21.1193 6.53605C21.2085 6.85498 21.2807 7.1798 21.3358 7.5082C21.3482 7.58242 21.3598 7.65683 21.3705 7.73142C21.3761 7.77115 21.3816 7.81093 21.3868 7.85071C21.3894 7.87062 21.3919 7.89053 21.3944 7.9104C21.3987 7.94424 21.3909 7.8773 21.397 7.93374C21.4149 8.0982 21.4299 8.26284 21.44 8.42813C21.4601 8.75815 21.4635 9.08947 21.4503 9.41991C21.4437 9.58529 21.433 9.75049 21.4183 9.91522C21.4116 9.99018 21.4041 10.0651 21.3957 10.1398C21.3948 10.1473 21.3876 10.2095 21.3919 10.174C21.3961 10.1385 21.3885 10.2006 21.3875 10.2081C21.3819 10.2529 21.3758 10.2977 21.3695 10.3424C21.3231 10.6717 21.2607 10.998 21.1829 11.3197C21.1046 11.6441 21.0105 11.9637 20.902 12.277C20.8038 12.5605 20.6905 12.8421 20.5501 13.1468C20.5228 13.2061 20.4937 13.2622 20.4856 13.3294C20.475 13.418 20.5006 13.4879 20.5366 13.5639C20.5724 13.6393 20.6095 13.7138 20.6475 13.7878C20.7215 13.9317 20.7988 14.0736 20.8755 14.2158C20.9487 14.3515 21.0217 14.4874 21.09 14.6263C21.1188 14.6849 21.1468 14.7441 21.1733 14.8041C21.1867 14.8346 21.1998 14.8652 21.2124 14.8962C21.216 14.905 21.2354 14.9536 21.2207 14.9161C21.2052 14.8765 21.2286 14.9384 21.2313 14.9464C21.2507 15.0024 21.2679 15.0594 21.2814 15.1176C21.2876 15.1447 21.292 15.1721 21.2974 15.1993C21.3058 15.2416 21.2845 15.1957 21.2954 15.1776C21.2909 15.1849 21.2984 15.2172 21.2987 15.2259C21.2998 15.251 21.2989 15.2757 21.2982 15.3008C21.2961 15.3733 21.3139 15.2404 21.2962 15.3087C21.2931 15.3203 21.2681 15.397 21.2878 15.348C21.3065 15.3014 21.2707 15.3773 21.2639 15.3906C21.2446 15.4287 21.263 15.3694 21.2767 15.3734C21.276 15.3732 21.2518 15.4041 21.2536 15.402C21.2453 15.4116 21.2361 15.4201 21.2279 15.4296C21.1973 15.4649 21.2347 15.4074 21.2447 15.4171C21.2463 15.4187 21.1593 15.4729 21.1531 15.478C21.1279 15.4985 21.2142 15.4555 21.1836 15.4635C21.1756 15.4657 21.1679 15.4703 21.1599 15.473C21.1457 15.4779 21.1316 15.4828 21.1172 15.4869C21.1005 15.4917 21.0835 15.4945 21.0667 15.4988C21.0263 15.509 21.0981 15.493 21.1003 15.494C21.0937 15.4912 21.0677 15.4975 21.0604 15.498C21.0237 15.5006 20.9868 15.5004 20.95 15.4982C20.9333 15.4971 20.9168 15.4951 20.9001 15.4938C20.8429 15.4891 20.9635 15.5072 20.8925 15.4929C20.8078 15.4758 20.7247 15.4536 20.6425 15.4248C20.6007 15.4102 20.5592 15.3942 20.5181 15.3772C20.4972 15.3686 20.4763 15.3597 20.4556 15.3505C20.4451 15.346 20.4348 15.3412 20.4243 15.3366C20.3852 15.3192 20.4138 15.3291 20.4349 15.342C20.3535 15.292 20.2631 15.256 20.1798 15.2095C19.9027 15.0547 19.6426 14.8665 19.3689 14.7051C19.2358 14.6266 19.0855 14.5502 18.9393 14.6421C18.8492 14.6988 18.7657 14.7745 18.6791 14.8378C18.5858 14.9059 18.4914 14.9723 18.3957 15.0361C18.2177 15.1549 18.0351 15.2647 17.8483 15.365C17.7541 15.4156 17.659 15.4639 17.5631 15.5103C17.5391 15.5219 17.5151 15.5334 17.4911 15.5448C17.5483 15.5176 17.4855 15.5472 17.4642 15.5571C17.4134 15.5805 17.3625 15.6035 17.3115 15.6262C16.3237 16.0656 15.3187 16.4726 14.2647 16.6559C14.2343 16.6612 14.2039 16.6663 14.1736 16.6713C14.1584 16.6737 14.1432 16.6762 14.1281 16.6786C14.1193 16.68 14.0707 16.6875 14.1075 16.6819C14.1418 16.6766 14.1036 16.6824 14.0984 16.6832C14.0832 16.6854 14.0681 16.6875 14.0529 16.6897C14.0152 16.695 13.9773 16.7 13.9395 16.7048C13.8192 16.72 13.6985 16.7327 13.5778 16.7429C13.332 16.7634 13.0856 16.7734 12.8391 16.7725C12.5968 16.7716 12.3545 16.7604 12.113 16.7386C11.9972 16.7281 11.8816 16.7153 11.7662 16.7C11.7375 16.6962 11.7088 16.6923 11.6802 16.6882C11.6659 16.6861 11.6516 16.684 11.6372 16.6819C11.6992 16.6909 11.6588 16.6852 11.6455 16.683C11.5815 16.6728 11.5175 16.6622 11.4535 16.6507C10.999 16.5688 10.5499 16.449 10.1115 16.2919C9.89305 16.2136 9.67728 16.1261 9.46483 16.0294C9.43923 16.0178 9.41376 16.006 9.38825 15.9941C9.34205 15.9727 9.38846 15.9942 9.39635 15.998C9.38369 15.9919 9.371 15.9859 9.35835 15.9798C9.30468 15.9539 9.25125 15.9274 9.19807 15.9003C9.09529 15.848 8.99337 15.7935 8.89246 15.7368C8.49749 15.515 8.11747 15.2597 7.75772 14.9724C7.71433 14.9378 7.67123 14.9027 7.62843 14.8671C7.60972 14.8515 7.5911 14.8359 7.57256 14.8202C7.56194 14.8112 7.5514 14.8022 7.54082 14.7932C7.48628 14.7469 7.58682 14.8337 7.53303 14.7865C7.4497 14.7134 7.36728 14.639 7.28635 14.5626C7.12072 14.4062 6.96074 14.2424 6.80714 14.0713C6.655 13.9019 6.50908 13.7254 6.37016 13.5423C6.30321 13.4541 6.23822 13.3641 6.17438 13.273C6.14452 13.2304 6.17699 13.2767 6.1816 13.2835C6.1738 13.272 6.16592 13.2606 6.15816 13.2491C6.14261 13.2261 6.12714 13.203 6.11179 13.1799C6.07728 13.1278 6.04335 13.0754 6.01 13.0224C5.76851 12.6393 5.55696 12.2325 5.38101 11.807C5.36093 11.7585 5.34132 11.7096 5.32215 11.6606C5.31212 11.6348 5.28623 11.5727 5.31203 11.6352C5.29872 11.6029 5.28752 11.5692 5.27566 11.5362C5.2375 11.4302 5.20153 11.3233 5.16785 11.2154C5.09817 10.9924 5.03815 10.7655 4.98833 10.5359C4.96328 10.4205 4.9408 10.3043 4.92093 10.1877C4.90164 10.0744 4.87066 9.94975 4.86891 9.83422C4.86995 9.90385 4.86945 9.83845 4.86601 9.8074C4.86323 9.7821 4.86058 9.7568 4.85801 9.73146C4.85183 9.66977 4.84635 9.60804 4.84158 9.54621C4.83229 9.42543 4.82578 9.30433 4.822 9.18319C4.81433 8.93704 4.81806 8.69047 4.83279 8.44475C4.84029 8.31956 4.85071 8.19456 4.8639 8.06998C4.86709 8.03967 4.86929 8.00871 4.8741 7.97863C4.86431 8.04023 4.87294 7.98866 4.87705 7.95686C4.88551 7.89169 4.89472 7.82662 4.90467 7.76168C4.98531 7.23615 5.11522 6.72074 5.28582 6.22306C5.3061 6.16384 5.32701 6.10489 5.34845 6.04617C5.35422 6.03039 5.35998 6.01465 5.36583 5.99897C5.36898 5.99047 5.38798 5.94053 5.37425 5.97641C5.36044 6.01238 5.37981 5.96225 5.38305 5.9538C5.39068 5.93407 5.39835 5.91435 5.40606 5.89467C5.45791 5.76298 5.5125 5.63265 5.5697 5.50375C5.67838 5.25881 5.7958 5.01846 5.92298 4.78494C6.02456 4.59844 6.1327 4.41635 6.24714 4.23936C6.27505 4.19619 6.3033 4.15331 6.33196 4.11074C6.34511 4.0912 6.35842 4.06289 6.3751 4.04729C6.37095 4.05119 6.33565 4.10378 6.36506 4.06191C6.37422 4.04887 6.38331 4.03583 6.39248 4.02283C6.45283 3.93728 6.51472 3.85304 6.57801 3.77018C6.82676 3.44476 7.09795 3.14096 7.38781 2.86139C7.46031 2.79144 7.53402 2.72298 7.60876 2.65609C7.62689 2.6399 7.64506 2.62379 7.66327 2.60777C7.6724 2.59979 7.68156 2.59181 7.69069 2.58382C7.72101 2.55723 7.68795 2.59747 7.67667 2.59594C7.6977 2.59877 7.77555 2.51234 7.79468 2.49656C7.94599 2.37156 8.10129 2.25259 8.26003 2.13976C8.58261 1.91046 8.91946 1.70655 9.26672 1.52808C9.30891 1.5064 9.35122 1.4851 9.39369 1.46421C9.41227 1.45507 9.4309 1.44597 9.44952 1.43696C9.46018 1.43181 9.47084 1.42671 9.4815 1.4216C9.52086 1.40266 9.49581 1.42128 9.47238 1.42582C9.51448 1.41761 9.56147 1.38451 9.60129 1.36664C9.64713 1.34608 9.69313 1.32593 9.73925 1.30621C9.91861 1.22948 10.1002 1.15916 10.2835 1.09511C10.6486 0.967554 11.0208 0.865113 11.397 0.787226C11.492 0.767546 11.5873 0.749444 11.6827 0.73292C11.7262 0.7254 11.7696 0.718205 11.8132 0.711289C11.8248 0.709479 11.8364 0.707669 11.848 0.705858C11.8957 0.698339 11.833 0.708597 11.8277 0.708876C11.8567 0.707297 11.8862 0.700379 11.9149 0.696388C12.1042 0.670255 12.2941 0.650158 12.4844 0.63614C12.8681 0.60778 13.2532 0.603833 13.6374 0.62421C13.8307 0.634468 14.0238 0.6509 14.2163 0.673505C14.263 0.678982 14.3095 0.68483 14.3561 0.69105C14.3794 0.69416 14.4027 0.697316 14.4259 0.700612C14.4396 0.702561 14.5212 0.713842 14.4767 0.707901C14.4282 0.701449 14.5093 0.713099 14.5187 0.714584C14.5419 0.718298 14.565 0.722102 14.5882 0.726001C14.6374 0.734264 14.6865 0.742945 14.7356 0.752043C15.1126 0.821853 15.4861 0.915938 15.8532 1.03458C16.0345 1.0932 16.2142 1.15781 16.3921 1.22851C16.4849 1.26536 16.5771 1.30389 16.6688 1.34409C16.7092 1.36177 16.7494 1.37983 16.7896 1.39816C16.811 1.40795 16.8324 1.41784 16.8537 1.42777C16.8634 1.43228 16.9 1.44769 16.861 1.43116C16.8191 1.41338 16.8672 1.43418 16.8762 1.43854C17.2253 1.60643 17.5649 1.79911 17.8912 2.01675C18.0513 2.12351 18.2082 2.23626 18.3614 2.35499C18.4392 2.41519 18.5159 2.47693 18.5917 2.54019C18.6101 2.55551 18.6284 2.57097 18.6466 2.58647C18.6557 2.59422 18.6648 2.60202 18.6739 2.60982C18.6932 2.6262 18.689 2.63892 18.6595 2.59728C18.6854 2.63395 18.7344 2.66315 18.7673 2.69272C19.0623 2.95868 19.3399 3.24888 19.5961 3.56126C19.7251 3.71857 19.8486 3.88149 19.9662 4.04966C19.9696 4.05458 19.9848 4.08006 19.9876 4.08043C19.9876 4.08043 19.9539 4.03086 19.9715 4.05722C19.9854 4.07806 19.9997 4.09863 20.0136 4.11947C20.0433 4.1638 20.0726 4.20845 20.1015 4.25347C20.1579 4.3412 20.2126 4.43023 20.2657 4.52041C20.4741 4.87401 20.6566 5.2459 20.8134 5.6313C20.8728 5.77728 21.0718 5.82411 21.1871 5.74094C21.3217 5.64346 21.3485 5.47868 21.285 5.32249Z" fill="#0D9D57"/>
<path d="M4.32125 6.89116C3.5699 7.19115 2.87526 7.63206 2.27053 8.21551C1.71434 8.75218 1.24613 9.40972 0.893931 10.1304C0.534225 10.8665 0.283067 11.672 0.175512 12.5028C0.0538956 13.4421 0.0760045 14.3886 0.206166 15.3253C0.33081 16.2223 0.563506 17.1029 0.91504 17.9219C0.95598 18.0172 0.998872 18.1115 1.04346 18.2048C1.05769 18.0813 1.07191 17.9579 1.08618 17.8345C0.863315 18.1452 0.640452 18.456 0.417586 18.7667C0.268469 18.9746 0.0788252 19.1617 0.0175607 19.4291C-0.0603368 19.7691 0.128187 20.1026 0.439196 20.162C0.59242 20.1913 0.746264 20.1664 0.898118 20.1363C1.04367 20.1073 1.18685 20.0644 1.32846 20.0174C1.61442 19.9225 1.89398 19.8058 2.17866 19.7066C2.23212 19.6879 2.2858 19.6699 2.34001 19.6542C2.3632 19.6475 2.38647 19.6411 2.4099 19.6354C2.42048 19.6329 2.4311 19.6304 2.4418 19.6282C2.4734 19.6216 2.50643 19.6329 2.41745 19.6306C2.43326 19.631 2.45084 19.628 2.46673 19.6267C2.52928 19.6217 2.39451 19.6089 2.43869 19.621C2.46204 19.6275 2.50194 19.6571 2.40289 19.6031C2.42151 19.6132 2.44081 19.622 2.4596 19.6318C2.72232 19.7692 2.98215 19.9225 3.22662 20.0971C3.38001 20.2067 3.5256 20.3295 3.67883 20.4396C3.84872 20.5617 4.02265 20.6768 4.20005 20.7846C4.56756 21.0081 4.95061 21.2005 5.3423 21.3645C6.10555 21.6841 6.90747 21.8783 7.7188 21.9591C8.52021 22.039 9.3398 22.0046 10.1295 21.8273C10.8744 21.6602 11.5984 21.3564 12.2642 20.9478C13.4728 20.2059 14.6142 19.0275 15.0089 17.5051C15.05 17.3468 15.0809 17.1856 15.1021 17.0224C15.1226 16.8649 15.0674 16.6862 14.9114 16.6464C14.782 16.6135 14.5974 16.6907 14.5754 16.8599C14.5533 17.0299 14.5206 17.1978 14.477 17.3625C14.4576 17.4356 14.4362 17.5081 14.413 17.5797C14.4002 17.6191 14.3868 17.6582 14.3729 17.6971C14.366 17.7164 14.3598 17.7367 14.3516 17.7554C14.3866 17.6757 14.3482 17.7629 14.3417 17.7791C14.2116 18.1033 14.0439 18.4044 13.8545 18.6889C13.8253 18.7328 13.8559 18.6875 13.8607 18.6802C13.8488 18.6982 13.836 18.7155 13.8236 18.733C13.7985 18.7683 13.7731 18.8031 13.7472 18.8377C13.6907 18.9133 13.6324 18.9873 13.5725 19.0597C13.4598 19.1959 13.3415 19.3263 13.2186 19.451C13.1561 19.5145 13.0924 19.5765 13.0275 19.6369C12.9948 19.6674 12.9619 19.6976 12.9287 19.7274C12.9176 19.7373 12.9065 19.7472 12.8953 19.7571C12.8841 19.767 12.8729 19.7768 12.8616 19.7866C12.8887 19.7633 12.8901 19.762 12.866 19.7828C12.7219 19.9046 12.5747 20.0212 12.4229 20.1306C12.1256 20.345 11.8139 20.5343 11.4918 20.698C11.4512 20.7186 11.4103 20.7389 11.3693 20.7587C11.3602 20.7631 11.291 20.7956 11.3523 20.7671C11.3316 20.7767 11.311 20.7863 11.2903 20.7958C11.2073 20.8336 11.1238 20.8698 11.0396 20.9043C10.8642 20.9761 10.6863 21.0406 10.5065 21.0972C10.3341 21.1514 10.1599 21.1985 9.98438 21.2379C9.8969 21.2575 9.80905 21.2753 9.72094 21.291C9.68432 21.2976 9.64761 21.3036 9.6109 21.3097C9.53641 21.322 9.67009 21.3018 9.59539 21.3121C9.56602 21.3162 9.53666 21.3204 9.50721 21.3241C9.11469 21.3747 8.71861 21.3941 8.3236 21.3849C8.12977 21.3804 7.93611 21.3688 7.74294 21.3502C7.64646 21.3409 7.5501 21.3298 7.45391 21.3169C7.4299 21.3137 7.40588 21.3102 7.38186 21.307C7.30442 21.2966 7.41787 21.3129 7.3705 21.3055C7.31857 21.2973 7.26668 21.289 7.21487 21.28C6.82472 21.2122 6.43859 21.1153 6.06005 20.9897C5.87477 20.9282 5.69135 20.8597 5.51012 20.7846C5.41953 20.747 5.32948 20.7076 5.24009 20.6666C5.21774 20.6563 5.19542 20.646 5.17315 20.6355C5.22968 20.6621 5.15585 20.627 5.14951 20.6239C5.10517 20.6024 5.06095 20.5805 5.01694 20.5581C4.6569 20.3754 4.30827 20.1644 3.97499 19.9264C3.69496 19.7265 3.43049 19.5095 3.13753 19.3325C3.01545 19.2587 2.89201 19.1875 2.76679 19.1207C2.67408 19.0712 2.58594 19.0198 2.48096 19.0159C2.25871 19.0075 2.02269 19.1188 1.81617 19.1965C1.53639 19.3016 1.25757 19.4126 0.971162 19.4935C0.904298 19.5123 0.837019 19.5295 0.76916 19.5435C0.745558 19.5483 0.634812 19.561 0.73125 19.5522C0.701468 19.5549 0.671894 19.56 0.642029 19.5623C0.614404 19.5644 0.586445 19.5663 0.558737 19.5655C0.549695 19.5652 0.539742 19.5634 0.530782 19.564C0.488059 19.567 0.607269 19.5822 0.565583 19.5689C0.547995 19.5633 0.527459 19.5545 0.509582 19.5513C0.576487 19.5631 0.56666 19.5827 0.539284 19.5645C0.52908 19.5577 0.517051 19.5469 0.506225 19.5421C0.571637 19.5711 0.553135 19.5899 0.535299 19.5663C0.530446 19.5598 0.524021 19.5527 0.518463 19.5472C0.48669 19.5154 0.560978 19.6151 0.538165 19.5744C0.518545 19.5394 0.54476 19.55 0.548286 19.6078C0.547747 19.5992 0.54223 19.5831 0.539451 19.5748C0.524103 19.5292 0.537916 19.6577 0.543765 19.6076C0.544677 19.5999 0.547164 19.5748 0.544924 19.5679C0.537043 19.6257 0.535799 19.6386 0.541233 19.6065C0.543224 19.5963 0.545545 19.5863 0.5482 19.5764C0.559441 19.5338 0.574043 19.5492 0.542104 19.5853C0.551644 19.5745 0.558489 19.5473 0.565167 19.5337C0.582837 19.4978 0.603739 19.4648 0.62452 19.4312C0.648744 19.3921 0.580555 19.4842 0.63174 19.4226C0.649079 19.4016 0.665296 19.3795 0.682759 19.3587C0.696613 19.3423 0.711381 19.3267 0.724612 19.3096C0.960628 19.0064 1.17623 18.6799 1.40113 18.3663C1.42494 18.3331 1.44875 18.2999 1.47252 18.2667C1.55224 18.1556 1.57742 18.0265 1.51524 17.8964C1.42859 17.715 1.34879 17.5297 1.27578 17.341C1.26653 17.317 1.25111 17.275 1.2694 17.3248C1.25973 17.2985 1.24994 17.2724 1.2404 17.246C1.22256 17.1969 1.20514 17.1475 1.18814 17.098C1.15379 16.9978 1.12115 16.8969 1.09013 16.7954C0.962827 16.3786 0.862944 15.9513 0.788365 15.5188C0.769451 15.409 0.752193 15.2989 0.736597 15.1884C0.728799 15.1332 0.721378 15.0778 0.71441 15.0223C0.712792 15.0095 0.711253 14.9967 0.709635 14.9839C0.71005 14.9874 0.715733 15.0371 0.711751 15.0011C0.707977 14.9669 0.703953 14.9327 0.700303 14.8985C0.676536 14.6766 0.659449 14.4537 0.649411 14.2304C0.629667 13.7919 0.636678 13.3516 0.675959 12.9147C0.680397 12.8654 0.685248 12.8162 0.690516 12.767C0.693585 12.7384 0.696242 12.7098 0.700141 12.6814C0.691472 12.7445 0.700676 12.6786 0.703994 12.6533C0.717641 12.5491 0.733324 12.4452 0.75116 12.3417C0.78596 12.1397 0.828891 11.9394 0.881237 11.7422C0.930929 11.555 0.988001 11.3701 1.05138 11.1881C1.06714 11.1428 1.08357 11.0978 1.09991 11.0528C1.11982 10.998 1.08253 11.0975 1.10344 11.0432C1.11269 11.0192 1.12198 10.9952 1.1314 10.9712C1.16641 10.8824 1.20307 10.7944 1.24136 10.7073C1.39454 10.3587 1.57369 10.0245 1.77743 9.70994C1.80298 9.67053 1.82887 9.6314 1.85516 9.59265C1.86122 9.58369 1.86736 9.57478 1.87346 9.56582C1.89241 9.53787 1.86147 9.58262 1.86147 9.58317C1.86068 9.57083 1.89764 9.53179 1.9051 9.52135C1.96172 9.44207 2.02 9.36428 2.07981 9.28801C2.19575 9.14022 2.31757 8.99823 2.44487 8.86274C2.57362 8.72572 2.70793 8.5952 2.84726 8.47182C2.86675 8.45456 2.89463 8.43075 2.85717 8.46273C2.87364 8.44866 2.8901 8.43455 2.90665 8.42063C2.9454 8.388 2.98451 8.35597 3.024 8.32441C3.09783 8.26546 3.17283 8.20841 3.24902 8.15331C3.40378 8.0414 3.56318 7.93757 3.72649 7.84205C3.80965 7.7934 3.89381 7.74694 3.97884 7.70266C4.0185 7.682 4.05836 7.66181 4.09838 7.64213C4.11178 7.63554 4.12527 7.62909 4.13866 7.6225C4.14339 7.62018 4.17749 7.60374 4.14654 7.61855C4.1156 7.6334 4.14982 7.61702 4.15459 7.61484C4.16824 7.60857 4.18184 7.60226 4.19549 7.59604C4.28508 7.55524 4.37551 7.51699 4.4666 7.4806C4.60082 7.42699 4.7051 7.26978 4.65736 7.10463C4.61443 6.95661 4.46531 6.83365 4.32125 6.89116Z" fill="#0D9D57"/>
<path d="M10.9156 9.15766C11.0576 8.48463 10.6852 7.81021 10.0837 7.65129C9.48231 7.49237 8.87963 7.90913 8.73761 8.58216C8.5956 9.25518 8.96803 9.92961 9.56946 10.0885C10.1709 10.2475 10.7736 9.83069 10.9156 9.15766Z" fill="#0D9D57"/>
<path d="M13.285 10.1831C13.903 10.1831 14.404 9.62245 14.404 8.93089C14.404 8.23933 13.903 7.67871 13.285 7.67871C12.667 7.67871 12.166 8.23933 12.166 8.93089C12.166 9.62245 12.667 10.1831 13.285 10.1831Z" fill="#0D9D57"/>
<path d="M16.744 10.1831C17.362 10.1831 17.863 9.62245 17.863 8.93089C17.863 8.23933 17.362 7.67871 16.744 7.67871C16.126 7.67871 15.625 8.23933 15.625 8.93089C15.625 9.62245 16.126 10.1831 16.744 10.1831Z" fill="#0D9D57"/>
</svg>
