<svg width="40" height="40" viewBox="0 0 40 40" fill="none" xmlns="http://www.w3.org/2000/svg">
<path d="M12.0457 37.6508C12.1256 37.6925 12.2108 37.7123 12.2953 37.7123C12.2954 37.7123 12.2955 37.7122 12.2957 37.7122C12.2958 37.7122 12.2959 37.7123 12.296 37.7123C12.3806 37.7123 12.4658 37.6925 12.5457 37.6508C12.7605 37.5385 17.8142 34.861 18.4036 31.5672C18.6079 30.4252 18.2695 29.3559 17.398 28.3886C16.6645 27.5753 15.8465 27.1703 14.9314 27.2133C13.7713 27.2567 12.8169 28.0138 12.2956 28.5265C11.7742 28.0138 10.8196 27.2567 9.65937 27.2133C8.75651 27.1716 7.92656 27.5746 7.19308 28.3886C6.32158 29.3558 5.98317 30.4252 6.18776 31.5669C6.77715 34.861 11.8309 37.5385 12.0457 37.6508ZM7.99586 29.1161C8.51032 28.5447 9.03887 28.2675 9.61529 28.2971C10.8266 28.3399 11.859 29.6437 11.8692 29.6571C11.884 29.676 11.905 29.6856 11.9217 29.7021C11.937 29.7174 11.9458 29.737 11.9633 29.7507C11.9743 29.7593 11.9879 29.7611 11.9994 29.7687C12.0315 29.7901 12.0647 29.8051 12.1 29.819C12.1311 29.8313 12.1609 29.8431 12.1931 29.8493C12.2274 29.8561 12.2607 29.8566 12.2957 29.8566C12.3307 29.8566 12.364 29.8561 12.3983 29.8494C12.4307 29.8431 12.4605 29.8313 12.4917 29.8189C12.5268 29.8051 12.5598 29.7901 12.5918 29.7688C12.6034 29.7611 12.617 29.7594 12.6281 29.7507C12.6457 29.7369 12.6545 29.7172 12.67 29.7018C12.6865 29.6855 12.7074 29.6759 12.7221 29.6571C12.7323 29.6437 13.7648 28.3399 14.9757 28.2971C15.55 28.2675 16.0803 28.5447 16.5951 29.1161C17.2395 29.8308 17.4829 30.5696 17.3388 31.3744C16.9097 33.7781 13.2824 35.9889 12.2957 36.5499C11.3091 35.9888 7.68138 33.7778 7.25222 31.3744C7.10852 30.5696 7.35147 29.8308 7.99586 29.1161Z" fill="#0D9D57"/>
<path d="M24.5407 25.2314C24.5336 25.2242 24.5336 25.217 24.5336 25.217L20.7259 17.811C20.3148 17.905 19.947 17.9918 19.6441 18.0714L23.1633 24.9204H1.42785L5.12736 17.7459C4.93985 17.2252 4.81005 16.6828 4.74518 16.1187L0.057691 25.217C0.057691 25.217 0.0576901 25.2242 0.0504818 25.2314C0.0216002 25.3038 0 25.3761 0 25.4629V39.4575C0 39.7613 0.237995 40 0.540865 40H24.0504C24.3533 40 24.5912 39.7613 24.5912 39.4575V25.4629C24.5912 25.3761 24.5696 25.3038 24.5407 25.2314ZM23.5095 38.9151H1.08173V26.0053H23.5095L23.5095 38.9151Z" fill="#0D9D57"/>
<path d="M15.3118 23.4101H8.63901C8.34042 23.4101 8.09814 23.1671 8.09814 22.8676C8.09814 22.5682 8.3404 22.3252 8.63901 22.3252H15.3118C15.6103 22.3252 15.8526 22.5682 15.8526 22.8676C15.8526 23.1671 15.6103 23.4101 15.3118 23.4101Z" fill="#0D9D57"/>
<path d="M11.6375 18.0227V15.5318C10.4087 15.1041 9.79393 14.2224 9.79393 12.8867C9.79393 12.2053 9.96696 11.65 10.3126 11.2223C10.6587 10.7942 11.1 10.5483 11.6375 10.4848V9.89673H12.337V10.4848C12.8387 10.5602 13.2459 10.7714 13.5579 11.118C13.8703 11.4651 14.0678 11.9437 14.1509 12.5537L12.9239 12.75C12.8487 12.2785 12.653 11.9612 12.3371 11.7986V14.123C13.0917 14.3728 13.6034 14.6799 13.8721 15.0446C14.1924 15.4806 14.3523 16.0336 14.3523 16.7032C14.3523 17.4482 14.1705 18.0604 13.807 18.5403C13.4434 19.0197 12.9536 19.3129 12.3371 19.4198V20.5316H11.6375V19.4496C10.4717 19.2791 9.79222 18.4193 9.59863 16.8698L10.8671 16.7032C10.9183 17.0161 11.0153 17.2887 11.1573 17.5205C11.2997 17.7523 11.4596 17.9197 11.6375 18.0227ZM11.6375 11.7811C11.4557 11.8564 11.3058 11.987 11.187 12.1733C11.0685 12.3595 11.0091 12.5655 11.0091 12.7916C11.0091 13.2671 11.2189 13.6159 11.6375 13.8377L11.6375 11.7811ZM12.337 18.106C12.5743 18.0547 12.7705 17.921 12.9269 17.705C13.0829 17.4889 13.1611 17.2282 13.1611 16.9232C13.1611 16.3605 12.8863 15.9819 12.337 15.7878L12.337 18.106Z" fill="#0D9D57"/>
<path d="M39.9374 10.058L36.7643 0.800559C36.5552 0.185787 35.8845 -0.146876 35.2715 0.0628432L31.7739 1.27065C31.161 1.48042 30.8364 2.15302 31.0456 2.76774L31.1754 3.15109C29.9133 3.04983 26.3292 2.66649 22.8821 1.61777C16.8245 -0.240904 13.262 6.73831 12.7644 7.80148C12.548 7.787 12.3245 7.77252 12.1081 7.77252C8.01922 7.77252 4.6875 11.1139 4.6875 15.2147C4.6875 15.5184 4.7091 15.8222 4.74521 16.1187C4.81009 16.6828 4.93989 17.2252 5.1274 17.746C6.16586 20.6028 8.90623 22.6568 12.1081 22.6568C15.0721 22.6568 17.7043 20.921 18.8942 18.2161C19.0888 18.1872 19.2764 18.1583 19.4711 18.1076C19.5216 18.0931 19.5793 18.0787 19.6369 18.0714C19.6369 18.0642 19.6441 18.0714 19.6441 18.0714C19.947 17.9919 20.3148 17.9051 20.7259 17.8111C22.7883 17.3265 26.0552 16.6178 28.6008 16.2851C31.7378 15.8801 33.3965 13.3632 34.1392 11.801L34.2186 12.0252C34.3195 12.3217 34.5287 12.5604 34.8099 12.6978C34.9758 12.7774 35.1489 12.8208 35.3292 12.8208C35.4518 12.8208 35.5815 12.7991 35.7114 12.7557L39.2017 11.5551C39.8148 11.3381 40.1465 10.6727 39.9374 10.058ZM12.1081 21.5719C8.61057 21.5719 5.76923 18.7223 5.76923 15.2147C5.76923 11.7069 8.61057 8.85738 12.1081 8.85738C14.7764 8.85738 17.1562 10.557 18.0648 13.0377C17.3797 13.2258 16.6802 13.3776 16.0168 13.5006C15.4687 13.6018 15.0072 14.0068 14.8557 14.5348C14.4663 15.8656 14.9134 16.9794 16.1105 17.6881C16.5865 17.963 17.1201 18.1438 17.6826 18.2161C16.5865 20.2701 14.4735 21.5719 12.1081 21.5719ZM17.5817 10.2098C17.5889 10.2026 17.5889 10.2026 17.5961 10.1954C19.0312 8.49578 21.0432 8.03294 22.161 8.56812C22.7595 8.85738 23.0048 9.39258 22.8605 10.123C22.6514 11.2007 21.0288 12.0903 19.0961 12.7267C18.7644 11.7793 18.2451 10.9259 17.5817 10.2098ZM33.5912 10.2605C33.5768 10.3039 32.2499 14.7156 28.4638 15.2147C25.3701 15.6197 21.3389 16.5382 19.2187 17.0517C18.2812 17.2759 17.3725 17.1746 16.6586 16.7479C15.887 16.2995 15.6418 15.692 15.8942 14.8458C15.9302 14.7012 16.0601 14.5926 16.2115 14.571C18.3605 14.1805 23.4158 12.9871 23.9206 10.3328C24.1586 9.11055 23.6682 8.09075 22.6225 7.58446C21.1658 6.89017 18.6346 7.31686 16.8028 9.4649C15.9519 8.77058 14.9495 8.25709 13.8678 7.98952C14.6178 6.47794 17.6466 1.14768 22.5648 2.65203C26.8485 3.96109 31.197 4.25036 31.5576 4.27207L33.6056 10.2388C33.5984 10.246 33.5984 10.2532 33.5912 10.2605ZM38.8556 10.5281L35.358 11.7287C35.3147 11.7431 35.2571 11.7142 35.2427 11.6708L32.0696 2.41337C32.0552 2.36274 32.0768 2.31211 32.1273 2.29763L35.6249 1.08982H35.6537C35.6898 1.08982 35.7258 1.11153 35.7403 1.1477L38.9133 10.4051C38.9277 10.4558 38.8989 10.5064 38.8556 10.5281Z" fill="#0D9D57"/>
</svg>
