<svg width="26" height="26" viewBox="0 0 26 26" fill="none" xmlns="http://www.w3.org/2000/svg">
<path d="M16.865 26H9.08118C8.84592 26 8.6577 25.819 8.6577 25.5928V18.6112C8.57032 18.1716 8.1334 17.8548 7.60238 17.8548H1.80145C0.806619 17.8548 0 17.0791 0 16.1224C0 15.1656 0.806619 14.3899 1.80145 14.3899H24.1986C25.1934 14.3899 26 15.1656 26 16.1224C26 17.0791 25.1934 17.8548 24.1986 17.8548H18.6127C17.9069 17.8548 17.2885 18.4108 17.2885 19.0443V25.5928C17.2885 25.8126 17.1003 26 16.865 26ZM9.50465 25.1855H16.4416V19.0443C16.4416 17.9583 17.4364 17.0403 18.6127 17.0403H24.1986C24.7229 17.0403 25.153 16.6266 25.153 16.1224C25.153 15.6181 24.7229 15.2044 24.1986 15.2044H1.80145C1.27715 15.2044 0.846949 15.6181 0.846949 16.1224C0.846949 16.6266 1.27715 17.0403 1.80145 17.0403H7.60238C8.5636 17.0403 9.36349 17.6609 9.49793 18.5142C9.49793 18.5336 9.50465 18.553 9.50465 18.5789V25.1855Z" fill="#0D9D57"/>
<path d="M12.8186 15.0622C10.9836 15.0622 9.49805 13.6271 9.49805 11.8687C9.49805 10.1104 10.9903 8.67529 12.8186 8.67529C14.6537 8.67529 16.1392 10.1104 16.1392 11.8687C16.1392 13.6271 14.6537 15.0622 12.8186 15.0622ZM12.8186 9.48335C11.4541 9.48335 10.345 10.55 10.345 11.8623C10.345 13.1745 11.4541 14.2412 12.8186 14.2412C14.1832 14.2412 15.2923 13.1745 15.2923 11.8623C15.2923 10.55 14.1832 9.48335 12.8186 9.48335Z" fill="#0D9D57"/>
<path d="M3.20668 17.8482C2.97141 17.8482 2.7832 17.6672 2.7832 17.441V14.7906C2.7832 14.5643 2.97141 14.3833 3.20668 14.3833C3.44194 14.3833 3.63015 14.5643 3.63015 14.7906V17.441C3.63015 17.6672 3.44194 17.8482 3.20668 17.8482Z" fill="#0D9D57"/>
<path d="M22.6383 17.8482C22.4031 17.8482 22.2148 17.6672 22.2148 17.441V14.7906C22.2148 14.5643 22.4031 14.3833 22.6383 14.3833C22.8736 14.3833 23.0618 14.5643 23.0618 14.7906V17.441C23.0618 17.6672 22.8669 17.8482 22.6383 17.8482Z" fill="#0D9D57"/>
<path d="M13.0003 6.54848C12.886 6.54848 12.7784 6.50323 12.6978 6.43212L9.81413 3.65241C9.39737 3.25162 9.16211 2.7086 9.16211 2.13973C9.16211 1.57086 9.39065 1.03431 9.81413 0.627051C10.2309 0.226256 10.7955 0 11.387 0C11.9786 0 12.5365 0.219791 12.9599 0.627051L13.0003 0.665838L13.0406 0.627051C13.4574 0.226256 14.0153 0 14.6135 0C15.205 0 15.7629 0.219791 16.1864 0.627051C16.6032 1.02785 16.8384 1.57086 16.8384 2.13973C16.8384 2.7086 16.6099 3.24515 16.1864 3.65241L13.3028 6.43212C13.2221 6.5097 13.1145 6.54848 13.0003 6.54848ZM11.387 0.820985C11.0375 0.820985 10.6812 0.950274 10.4124 1.20885C10.1502 1.46096 10.0091 1.79065 10.0091 2.1462C10.0091 2.50174 10.1502 2.83143 10.4124 3.08354L13.0003 5.57235L15.5882 3.08354C16.1259 2.56638 16.1259 1.72601 15.5882 1.21532C15.326 0.963202 14.9832 0.827449 14.6135 0.827449C14.2438 0.827449 13.901 0.963202 13.6388 1.21532L13.296 1.545C13.128 1.70661 12.8658 1.70661 12.6978 1.545L12.355 1.21532C12.0928 0.950273 11.7366 0.820985 11.387 0.820985Z" fill="#0D9D57"/>
<path d="M4.18191 12.3537C4.06764 12.3537 3.96009 12.3084 3.87943 12.2373L0.995767 9.45759C0.579014 9.05679 0.34375 8.51378 0.34375 7.94491C0.34375 7.37604 0.572292 6.83949 0.995767 6.43223C1.41252 6.03143 1.97715 5.80518 2.56867 5.80518C3.16019 5.80518 3.7181 6.02497 4.14158 6.43223L4.18191 6.47101L4.22224 6.43223C4.63899 6.03143 5.20363 5.80518 5.79515 5.80518C6.38667 5.80518 6.94458 6.02497 7.36805 6.43223C7.78481 6.83302 8.02007 7.37604 8.02007 7.94491C8.02007 8.51378 7.79153 9.05033 7.36805 9.45759L4.48439 12.2373C4.40373 12.3084 4.29618 12.3537 4.18191 12.3537ZM2.56867 6.62616C2.21914 6.62616 1.86288 6.75545 1.59401 7.01403C1.33186 7.26614 1.1907 7.59583 1.1907 7.95137C1.1907 8.30692 1.33186 8.6366 1.59401 8.88872L4.18191 11.3775L6.76981 8.88872C7.03196 8.6366 7.17312 8.30692 7.17312 7.95137C7.17312 7.59583 7.03196 7.26614 6.76981 7.01403C6.23207 6.49687 5.35823 6.49687 4.8272 7.01403L4.48439 7.34371C4.31635 7.50533 4.04747 7.50533 3.88615 7.34371L3.54334 7.01403C3.27446 6.75545 2.92493 6.62616 2.56867 6.62616Z" fill="#0D9D57"/>
<path d="M21.8209 12.3537C21.7133 12.3537 21.6058 12.3149 21.5184 12.2373L18.6347 9.45759C17.7676 8.62367 17.7676 7.26614 18.6347 6.43223C19.0515 6.03143 19.6161 5.80518 20.2076 5.80518C20.7991 5.80518 21.357 6.02497 21.7805 6.43223L21.8209 6.47101L21.8612 6.43223C22.2779 6.03143 22.8359 5.80518 23.4341 5.80518C24.0256 5.80518 24.5835 6.02497 25.007 6.43223C25.4238 6.83302 25.659 7.37604 25.659 7.94491C25.659 8.51378 25.4305 9.05033 25.007 9.45759L22.1233 12.2373C22.036 12.3149 21.9284 12.3537 21.8209 12.3537ZM20.2009 6.62616C19.8312 6.62616 19.4884 6.76191 19.2262 7.01403C18.6885 7.53118 18.6885 8.37156 19.2262 8.88225L21.8141 11.3711L24.402 8.88225C24.9398 8.3651 24.9398 7.52472 24.402 7.01403C24.1399 6.76191 23.7971 6.62616 23.4274 6.62616C23.0577 6.62616 22.7149 6.76191 22.4527 7.01403L22.1099 7.34371C21.9418 7.50533 21.673 7.50533 21.5117 7.34371L21.1688 7.01403C20.9134 6.76191 20.5706 6.62616 20.2009 6.62616Z" fill="#0D9D57"/>
</svg>
