<svg width="195" height="169" viewBox="0 0 195 169" fill="none" xmlns="http://www.w3.org/2000/svg">
<path d="M92.9744 108.213L102.262 98.9587C117.675 85.3234 129.225 74.891 137.492 64.8267C146.804 53.4896 151.141 43.3498 151.141 32.9168C151.141 23.9649 147.761 15.6549 141.624 9.51733C135.487 3.38006 127.177 0 118.224 0C108.832 0 99.5599 3.98541 92.9741 10.7596C86.3884 3.98541 77.117 0 67.7243 0C58.7724 0 50.4624 3.38006 44.3249 9.51733C38.1876 15.6549 34.8075 23.9649 34.8075 32.9168C34.8075 43.3501 39.1447 53.4896 48.457 64.8267C56.724 74.8913 68.2734 85.3234 83.6867 98.9584L92.9744 108.213ZM118.225 4.17387C134.342 4.17387 146.967 16.7993 146.967 32.9168C146.967 52.8668 129.797 69.0275 99.45 95.8734L99.3597 95.9581L92.9744 102.321L86.4992 95.8734C56.1518 69.0275 38.9817 52.8671 38.9817 32.9168C38.9817 16.7993 51.6071 4.17387 67.7246 4.17387C76.5564 4.17387 85.621 8.40333 91.3813 15.2116L92.9744 17.0949L94.5679 15.2116C100.328 8.40302 109.393 4.17387 118.225 4.17387Z" fill="white" fill-opacity="0.8"/>
<path d="M106.32 169C114.409 169 133.123 164.862 149.756 161.184C157.909 159.381 165.611 157.678 170.889 156.73C171.145 156.684 171.46 156.617 171.858 156.533C174.948 155.875 183.128 154.135 191.58 156.748L204.894 163.261L227.286 125.617L226.723 124.575C225.02 121.425 220.956 119.39 217.691 117.756C216.611 117.215 215.591 116.704 215.007 116.311L214.958 116.279C190.457 100.745 162.079 93.6927 158.167 94.1909C158.11 94.1952 157.845 94.1973 157.632 94.1989C155.733 94.213 151.285 94.2458 144.566 96.6951C136.363 99.6853 127.589 105.242 118.487 113.211C117.671 113.897 116.042 114.213 114.605 114.491L114.34 114.542C112.215 114.967 110.037 115.401 108.1 115.233C106.631 115.105 105.178 115.057 103.773 115.011C101.562 114.937 99.4748 114.868 97.3011 114.513C86.1449 112.679 69.9034 111.909 55.8908 118.656C55.7496 118.724 55.6298 118.782 55.5313 118.828C54.4501 119.237 53.2085 120.183 52.0997 121.424C48.4323 118.528 38.5018 110.459 33.2968 106.23C30.8604 104.25 28.9547 102.701 28.1689 102.069C23.5674 98.3654 19.4408 95.141 15.534 93.1908C10.9714 90.9134 7.03455 90.6269 3.49794 92.315C1.03296 93.5168 -0.0724487 95.2966 0.00367737 97.9233C0.023941 98.9618 0.0675354 101.164 9.33713 112.086C10.2614 113.219 27.8097 134.685 37.7083 143.601C41.8232 147.295 65.0096 156.146 69.6157 157.883C82.3197 162.674 99.1671 168.445 104.839 168.944C105.282 168.981 105.777 169 106.32 169ZM181.866 151.176C176.977 151.176 173 152.022 170.99 152.45C170.64 152.524 170.359 152.585 170.151 152.622C164.791 153.585 157.05 155.296 148.855 157.108C132.263 160.777 111.613 165.343 105.203 164.785C100.951 164.41 87.2401 160.067 71.0886 153.976C55.5301 148.11 42.6655 142.441 40.4995 140.496C30.7885 131.749 12.7396 109.653 12.5585 109.431L12.5321 109.399C4.84737 100.346 4.22516 98.0713 4.17543 97.7861C4.15271 96.8686 4.29268 96.5699 5.31151 96.0732C10.4213 93.634 16.644 98.1502 25.5513 105.319C26.3344 105.95 28.2349 107.494 30.6642 109.468C42.5274 119.108 47.6268 123.22 49.8096 124.928C49.2307 126.232 48.9124 127.605 49.0254 128.906C49.1742 130.62 50.1897 133.618 55.3134 134.452L56.1345 134.586L56.2076 134.536C60.4659 135.096 84.0737 139.066 85.9039 139.548C88.6427 140.277 90.7439 140.237 92.7757 140.198C93.7224 140.181 94.6172 140.163 95.5603 140.228C97.1449 140.327 98.7257 140.349 100.255 140.371C101.517 140.388 102.822 140.406 104.082 140.469L104.289 136.3C102.955 136.234 101.612 136.215 100.312 136.197C98.8341 136.176 97.3054 136.155 95.8332 136.062C94.7198 135.986 93.6911 136.006 92.6962 136.025C90.8722 136.059 89.1492 136.092 86.9724 135.513C85.6092 135.154 76.1045 133.528 70.7024 132.623C66.8082 131.97 63.2225 131.385 60.6052 130.975C59.1726 130.75 58.0457 130.579 57.2559 130.469C56.6542 130.384 56.2033 130.321 55.8327 130.307C53.2981 129.857 53.2118 128.872 53.1836 128.545C53.0031 126.47 55.7594 123.166 57.0136 122.729L57.1898 122.659C57.3212 122.599 57.4916 122.517 57.7016 122.416C70.7325 116.142 86.0616 116.895 96.626 118.632C99.0674 119.031 101.39 119.108 103.635 119.182C105.047 119.229 106.38 119.273 107.739 119.392C110.272 119.611 112.745 119.117 115.138 118.64L115.398 118.589C117.248 118.231 119.551 117.785 121.199 116.384L121.222 116.364C134.764 104.505 147.025 98.4519 157.663 98.373C158.096 98.37 158.409 98.3675 158.691 98.3322C159.805 98.2453 166.908 99.5423 177.817 103.302C186.684 106.358 199.931 111.698 212.7 119.789C213.505 120.328 214.58 120.866 215.823 121.489C218.024 122.59 220.915 124.038 222.4 125.667L203.273 157.822L193.13 152.861L192.981 152.814C189.074 151.581 185.251 151.176 181.866 151.176ZM4.17603 97.8009C4.17633 97.8079 4.17633 97.8144 4.17633 97.8211C4.17633 97.8144 4.17633 97.8076 4.17603 97.8009Z" fill="white" fill-opacity="0.8"/>
</svg>
