<svg width="39" height="29" viewBox="0 0 39 29" fill="none" xmlns="http://www.w3.org/2000/svg">
<path d="M23.0477 18.5691L21.454 16.9811C18.8091 14.6413 16.8272 12.8511 15.4086 11.1241C13.8107 9.17871 13.0664 7.43873 13.0664 5.64845C13.0664 4.11232 13.6464 2.68635 14.6996 1.63315C15.7527 0.580011 17.1787 0 18.7149 0C20.3266 0 21.9176 0.683887 23.0477 1.84633C24.1778 0.683887 25.7688 0 27.3806 0C28.9167 0 30.3426 0.580011 31.3958 1.63315C32.449 2.68635 33.029 4.11232 33.029 5.64845C33.029 7.43878 32.2847 9.17871 30.6868 11.1241C29.2682 12.8512 27.2863 14.6413 24.6414 16.9811L23.0477 18.5691ZM18.7148 0.716228C15.9491 0.716228 13.7826 2.88272 13.7826 5.64845C13.7826 9.07183 16.7289 11.845 21.9365 16.4517L21.952 16.4662L23.0477 17.558L24.1588 16.4517C29.3664 11.845 32.3127 9.07188 32.3127 5.64845C32.3127 2.88272 30.1462 0.716228 27.3805 0.716228C25.865 0.716228 24.3095 1.44199 23.3211 2.61028L23.0477 2.93345L22.7742 2.61028C21.7858 1.44194 20.2303 0.716228 18.7148 0.716228Z" fill="white"/>
<path d="M20.7575 28.9998C19.3693 28.9998 16.1582 28.2897 13.3039 27.6586C11.9048 27.3492 10.5832 27.057 9.67754 26.8943C9.63356 26.8864 9.57956 26.8749 9.51124 26.8604C8.98096 26.7476 7.57731 26.4489 6.12705 26.8974L3.84241 28.0149L0 21.5553L0.096606 21.3766C0.388797 20.836 1.08611 20.4869 1.64637 20.2064C1.83173 20.1136 2.00683 20.026 2.10707 19.9584L2.11539 19.9529C6.31974 17.2874 11.1894 16.0772 11.8606 16.1627C11.8704 16.1634 11.9158 16.1638 11.9524 16.1641C12.2783 16.1665 13.0416 16.1721 14.1945 16.5924C15.6021 17.1055 17.1077 18.0591 18.6696 19.4265C18.8097 19.5443 19.0892 19.5984 19.3358 19.6462L19.3812 19.655C19.7459 19.7278 20.1196 19.8024 20.4519 19.7735C20.7042 19.7515 20.9534 19.7433 21.1945 19.7353C21.5738 19.7227 21.9321 19.7109 22.3051 19.65C24.2194 19.3353 27.0065 19.2031 29.411 20.3608C29.4352 20.3725 29.4558 20.3824 29.4727 20.3903C29.6582 20.4605 29.8713 20.6229 30.0615 20.8359C30.6908 20.3389 32.3949 18.9542 33.2881 18.2285C33.7062 17.8888 34.0332 17.6231 34.168 17.5146C34.9576 16.879 35.6657 16.3257 36.3361 15.9911C37.119 15.6003 37.7946 15.5511 38.4015 15.8408C38.8245 16.047 39.0142 16.3524 39.0011 16.8032C38.9976 16.9814 38.9901 17.3593 37.3995 19.2335C37.2409 19.4279 34.2296 23.1113 32.5311 24.6413C31.825 25.2753 27.8462 26.7941 27.0558 27.0922C24.8758 27.9142 21.9849 28.9045 21.0116 28.9901C20.9355 28.9965 20.8506 28.9998 20.7575 28.9998ZM7.79386 25.9412C8.63277 25.9412 9.31529 26.0864 9.66026 26.1598C9.72021 26.1725 9.76856 26.1829 9.80417 26.1893C10.724 26.3546 12.0523 26.6483 13.4586 26.9592C16.3056 27.5888 19.8492 28.3722 20.949 28.2764C21.6788 28.2122 24.0315 27.4668 26.8031 26.4218C29.4729 25.4151 31.6804 24.4422 32.0521 24.1085C33.7185 22.6075 36.8156 18.816 36.8467 18.7778L36.8512 18.7724C38.1699 17.2189 38.2767 16.8286 38.2852 16.7796C38.2891 16.6222 38.2651 16.5709 38.0903 16.4857C37.2134 16.0671 36.1457 16.8421 34.6172 18.0723C34.4828 18.1805 34.1567 18.4455 33.7398 18.7843C31.7041 20.4384 30.8291 21.1441 30.4545 21.4371C30.5538 21.661 30.6085 21.8965 30.5891 22.1198C30.5635 22.4138 30.3893 22.9283 29.5101 23.0714L29.3692 23.0944L29.3566 23.0859C28.6259 23.182 24.5749 23.8631 24.2608 23.9459C23.7908 24.071 23.4303 24.0642 23.0816 24.0575C22.9192 24.0545 22.7656 24.0514 22.6038 24.0625C22.3319 24.0796 22.0606 24.0834 21.7982 24.087C21.5816 24.09 21.3576 24.0931 21.1415 24.1039L21.106 23.3885C21.3349 23.3772 21.5654 23.374 21.7883 23.3709C22.042 23.3673 22.3043 23.3637 22.557 23.3477C22.748 23.3347 22.9245 23.338 23.0953 23.3414C23.4083 23.3472 23.7039 23.3528 24.0774 23.2534C24.3114 23.1919 25.9424 22.9128 26.8693 22.7575C27.5376 22.6456 28.1529 22.5451 28.602 22.4747C28.8478 22.4361 29.0412 22.4069 29.1767 22.3879C29.28 22.3734 29.3574 22.3625 29.4209 22.3601C29.8559 22.2829 29.8707 22.114 29.8755 22.0577C29.9065 21.7017 29.4335 21.1348 29.2183 21.0598L29.1881 21.0477C29.1655 21.0375 29.1363 21.0234 29.1003 21.0061C26.8642 19.9295 24.2337 20.0587 22.4209 20.3568C22.002 20.4252 21.6035 20.4384 21.2182 20.4512C20.9759 20.4592 20.7471 20.4667 20.514 20.4871C20.0794 20.5248 19.6549 20.44 19.2443 20.358L19.1997 20.3494C18.8822 20.2879 18.487 20.2114 18.2042 19.9709L18.2002 19.9675C15.8765 17.9325 13.7726 16.8939 11.947 16.8803C11.8727 16.8798 11.8191 16.8794 11.7707 16.8733C11.5795 16.8584 10.3607 17.081 8.48865 17.7261C6.96712 18.2505 4.69391 19.1669 2.50287 20.5553C2.36481 20.6477 2.18024 20.7401 1.96695 20.8469C1.58927 21.036 1.09323 21.2843 0.838435 21.5639L4.12054 27.0816L5.86099 26.2303L5.88659 26.2222C6.5571 26.0108 7.21301 25.9412 7.79386 25.9412ZM38.2851 16.7822C38.2851 16.7834 38.2851 16.7845 38.2851 16.7856C38.2851 16.7845 38.2851 16.7833 38.2851 16.7822Z" fill="white"/>
</svg>
