<svg width="224" height="275" viewBox="0 0 224 275" fill="none" xmlns="http://www.w3.org/2000/svg">
<g opacity="0.8">
<path d="M103.552 240.136C102.967 239.816 101.114 237.188 99.6157 234.255C97.2759 229.986 96.9763 228.802 97.8631 228.037C98.4543 227.528 99.3085 227.204 99.6897 227.287C100.664 227.581 105.609 237.024 105.715 238.581C105.702 240.241 104.883 240.844 103.552 240.136Z" fill="white"/>
<path d="M161.999 175.127C156.811 172.694 155.476 170.548 158.827 170.132C160.004 169.943 167.014 173.174 168.033 174.357C168.441 174.83 168.214 175.643 167.564 176.204C166.677 176.968 165.203 176.693 161.999 175.127Z" fill="white"/>
<path d="M144.659 191.826C142.72 191.848 139.196 190.868 136.898 189.756C134.601 188.645 132.559 187.83 132.381 187.982C132.204 188.135 132.369 189.642 132.738 191.385C134.323 198.365 130.91 204.089 125.887 203.163C120.483 202.153 114.399 190.91 113.422 180.212C112.957 174.533 113.828 171 116.429 168.758C120.923 164.885 141.374 173.43 149.23 182.425C150.912 184.376 151.278 185.399 150.852 187.415C150.151 190.905 148.807 191.857 144.659 191.826Z" fill="white"/>
<path d="M82.7809 245.568C81.9003 245.503 79.6975 235.655 80.3377 234.485C80.5905 234.061 81.3428 233.618 81.9604 233.498C82.9675 233.352 83.3934 234.324 84.3696 238.326C85.4068 242.996 84.7624 245.715 82.7809 245.568Z" fill="white"/>
<path d="M169.245 162.493C163.994 161.661 162.043 160.354 163.758 158.876C165.295 157.551 175.053 159.548 175.041 161.207C175.114 163.205 174.496 163.325 169.245 162.493Z" fill="white"/>
<path d="M67.0708 251.487C65.9354 251.126 64.3567 237.34 65.4209 236.423C67.1945 234.894 68.1219 236.568 68.9612 243.16C69.8678 249.592 69.2907 252.15 67.0708 251.487Z" fill="white"/>
<path d="M172.234 149.819C167.409 149.96 165.858 149.236 166.885 147.32C167.213 146.624 169.515 146.186 172.563 146.136C176.66 146.107 177.694 146.35 177.722 147.459C177.795 149.457 177.398 149.593 172.234 149.819Z" fill="white"/>
<path d="M82.925 198.87C78.8011 198.509 74.0494 197.659 72.2779 196.919L69.049 195.683L70.6206 197.626C73.5761 201.055 76.0545 206.441 75.7893 208.524C75.416 211.319 71.4631 214.623 68.5928 214.521C67.3228 214.482 65.0948 213.93 63.5354 213.316C60.4757 212.037 51.7126 205.577 49.3176 202.798C48.5023 201.852 47.6033 201.287 47.2486 201.593C46.953 201.848 46.9631 202.457 47.3198 202.871C47.6765 203.285 47.8762 205.071 47.6946 206.773C47.1437 212.709 41.4458 215.662 35.5975 213.181C31.5206 211.44 27.5886 206.997 18.6896 194.162C9.89238 181.445 -0.706875 169.148 -6.53464 164.897C-11.3616 161.329 -22.6606 156.23 -34.9729 152.107C-40.8029 150.125 -42.0831 149.477 -41.7813 148.392C-41.5631 147.689 -41.0738 147.061 -40.6681 146.814C-39.6448 146.448 -24.4766 151.613 -16.3819 155.146C-5.98176 159.68 -0.95918 163.595 8.00942 174C12.2389 178.907 18.5006 187.009 21.9514 191.969C25.4022 196.929 29.8884 202.851 31.7657 205.149C36.8615 211.061 40.81 212.295 43.3401 208.774C44.7652 206.722 43.8238 202.999 40.5931 198.056C36.963 192.529 35.8177 188.57 37.5587 187.481C38.894 186.64 39.3098 187.003 46.1871 194.264C53.837 202.303 61.1935 208.327 65.8636 210.279C68.0081 211.212 69.117 211.184 70.6379 210.079C73.9078 207.776 72.5891 205.409 62.7827 195.108C49.7842 181.581 50.1918 182.054 51.5516 180.882C52.5567 180.016 53.4128 180.411 57.2062 183.736C63.5028 189.129 69.3021 192.271 76.4694 194.13C84.501 196.276 89.479 196.313 91.2853 194.344C93.5136 191.908 91.5018 189.932 80.531 184.138C66.6432 176.633 58.7993 171.956 58.6445 171.059C58.3348 169.265 60.357 168.862 63.3066 170.132C67.3917 171.763 75.4683 171.808 78.8504 170.233C82.7482 168.419 86.9111 164.522 88.5361 161.266C91.5842 155.239 90.6433 145.539 86.5157 140.751C84.2735 138.149 80.7898 136.618 79.4891 137.739C79.1344 138.045 78.7183 140.67 78.557 143.592C78.0098 153.955 70.0448 160.614 60.262 158.948C50.8605 157.365 44.5378 148.595 45.297 138.358C45.6562 133.514 47.1956 129.921 51.3281 124.195C55.0305 119.046 55.5832 116.818 53.6977 114.63C50.946 111.438 44.8466 113.088 36.9896 119.036C32.7064 122.316 31.0184 124.183 28.3374 128.245C22.6634 136.845 23.3994 136.623 14.3283 132.077C0.458831 125.071 -18.9265 113.34 -18.8285 112.019C-18.6489 109.597 -16.3699 110.209 -7.89011 115.265C1.16657 120.751 12.969 127.272 18.5217 130.008L21.7262 131.574L25.0738 126.73C27.7385 122.888 29.8404 120.664 34.9513 116.671C45.4178 108.371 52.4243 107.175 57.3672 112.91C59.5074 115.393 59.0933 118.738 56.1922 122.784C49.3949 132.353 47.5822 138.14 49.4367 144.476C52.1288 153.696 62.0805 158.308 69.8231 153.902C73.2297 151.996 74.8955 148.19 74.8633 142.654C74.8005 138.277 75.086 137.412 77.037 135.731C78.8106 134.202 80.1133 133.801 82.696 134.048C85.8374 134.225 86.0066 134.182 84.9874 133C84.3759 132.29 83.9725 130.268 84.1031 128.507C84.4378 123.994 87.141 121.87 93.0997 121.371C103.349 120.471 106.028 118.677 105.099 113.295C104.074 106.966 96.0165 101.443 87.8216 101.499C83.504 101.511 77.1437 103.696 74.3058 106.142C71.5862 108.486 65.3787 110.848 62.796 110.601C56.5887 109.974 54.092 104.089 56.918 97.3255C58.4411 93.9519 59.5297 92.7044 65.0953 87.8042C70.4754 83.1671 72.3937 81.9258 76.318 80.5012C84.4458 77.6174 84.142 77.9822 83.1845 71.4915C81.304 58.7893 76.8734 45.4 71.25 35.4087C69.3015 31.833 69.0447 30.8178 69.9315 30.0534C71.646 28.5756 72.92 30.0537 76.819 37.9247C82.5483 49.4734 87.4229 67.3231 87.5016 77.4566L87.6032 80.5633L82.9166 81.8207C76.9354 83.3694 71.1947 86.1536 67.6474 89.2111C58.661 96.9567 56.4524 106.588 63.6912 106.738C67.1709 106.83 67.6276 106.642 73.2053 103.071C76.0533 101.235 79.629 99.2864 81.16 98.7912C94.0336 94.5991 109.839 103.851 108.736 115.004C108.389 118.188 105.961 121.827 103.035 123.215C102.055 123.751 98.6361 124.327 95.4111 124.531C89.2405 124.903 87.2284 125.916 87.2526 128.574C87.405 134.729 100.673 138.646 111.357 135.62C121.306 132.815 124.274 125.62 121.752 110.38C121.184 106.851 121.28 104.81 122.048 104.148C122.639 103.638 123.426 103.475 123.732 103.83C124.038 104.185 126.603 113.617 129.377 124.725C134.632 145.647 135.305 147.025 138.773 145.788C144.346 143.766 144.542 122.474 139.173 109.79C137.938 107.042 138.888 104.677 140.947 105.273C141.379 105.415 144.149 112.096 147.041 120.114C149.992 128.08 152.788 135.15 153.349 135.801C155.846 138.698 158.415 133.907 158.807 125.635C159.119 119.183 157.893 113.336 154.964 107.308C152.461 102.253 152.355 100.695 154.557 100.858C155.929 101.015 156.821 102.41 161.222 110.982C165.469 119.377 166.566 121.008 167.777 121.098C170.199 121.278 170.7 118.99 169.416 113.914C167.9 107.493 164.519 100.103 159.731 92.2767C155.488 85.3209 150.571 79.9755 138.944 69.5943C126.333 58.31 120.842 50.2656 117.736 38.4134C115.409 29.4967 113.522 14.6357 114.646 13.6675C116.479 12.0878 117.644 14.2773 118.425 20.9209C120.924 43.1878 125.809 52.6816 142.214 67.2911C150.005 74.1779 160.162 85.7229 164.014 91.9855C169.797 101.324 174.507 114.679 173.613 119.262C172.645 124.115 167.14 126.696 164.44 123.562C163.217 122.143 163.149 122.304 162.47 127.733C161.46 136.125 157.85 140.783 152.929 139.975C151.345 139.692 149.977 137.986 147.823 133.454C147.056 131.847 146.922 132.169 146.502 136.344C146.049 140.959 144.191 145.858 142.24 147.539C140.526 149.017 135.872 149.834 133.998 148.976C131.591 147.857 130.739 145.912 128.094 135.311C126.845 130.514 125.742 126.725 125.624 126.827C125.506 126.929 124.739 128.311 123.956 129.913C119.729 138.399 106.534 142.456 94.3845 139.12L89.2333 137.687L91.0188 140.476C94.6326 146.223 95.0496 156.27 91.9078 162.07C88.5722 168.242 82.6255 173.059 76.3732 174.532C74.461 174.944 73.1502 175.455 73.354 175.692C73.5579 175.928 77.9751 178.303 83.1385 181.066C88.3609 183.778 93.3306 186.913 94.2988 188.037C96.7957 190.934 96.2634 194.381 92.9526 197.234C90.5286 199.324 89.8518 199.495 82.925 198.87Z" fill="white"/>
</g>
</svg>
