<svg width="16" height="16" viewBox="0 0 16 16" fill="none" xmlns="http://www.w3.org/2000/svg">
<path d="M11.6095 6.94281C12 6.55228 12 5.92375 12 4.66667C12 3.40959 12 2.78105 11.6095 2.39052M11.6095 6.94281C11.219 7.33333 10.5904 7.33333 9.33333 7.33333H6.66667C5.40959 7.33333 4.78105 7.33333 4.39052 6.94281M11.6095 6.94281C11.6095 6.94281 11.6095 6.94281 11.6095 6.94281ZM11.6095 2.39052C11.219 2 10.5904 2 9.33333 2L6.66667 2C5.40959 2 4.78105 2 4.39052 2.39052M11.6095 2.39052C11.6095 2.39052 11.6095 2.39052 11.6095 2.39052ZM4.39052 2.39052C4 2.78105 4 3.40959 4 4.66667C4 5.92375 4 6.55228 4.39052 6.94281M4.39052 2.39052C4.39052 2.39052 4.39052 2.39052 4.39052 2.39052ZM4.39052 6.94281C4.39052 6.94281 4.39052 6.94281 4.39052 6.94281Z" stroke="#838589"/>
<path d="M8.66665 4.66667C8.66665 5.03486 8.36817 5.33333 7.99998 5.33333C7.63179 5.33333 7.33331 5.03486 7.33331 4.66667C7.33331 4.29848 7.63179 4 7.99998 4C8.36817 4 8.66665 4.29848 8.66665 4.66667Z" stroke="#838589"/>
<path d="M12 4C10.8954 4 10 3.10457 10 2" stroke="#838589" stroke-linecap="round"/>
<path d="M12 5.33334C10.8954 5.33334 10 6.22877 10 7.33334" stroke="#838589" stroke-linecap="round"/>
<path d="M4 4C5.10457 4 6 3.10457 6 2" stroke="#838589" stroke-linecap="round"/>
<path d="M4 5.33334C5.10457 5.33334 6 6.22877 6 7.33334" stroke="#838589" stroke-linecap="round"/>
<path d="M3.33331 13.5923H4.83994C5.51384 13.5923 6.195 13.6625 6.85086 13.7976C8.01102 14.0366 9.23254 14.0656 10.4046 13.8758C10.9825 13.7823 11.5507 13.6393 12.065 13.391C12.5292 13.1669 13.0979 12.8511 13.4799 12.4973C13.8614 12.144 14.2586 11.5658 14.5406 11.1138C14.7824 10.7263 14.6654 10.2508 14.283 9.96204C13.8582 9.64127 13.2278 9.64134 12.8031 9.96218L11.5983 10.8723C11.1313 11.225 10.6213 11.5497 10.0137 11.6466C9.94065 11.6583 9.86409 11.6689 9.78422 11.6781M9.78422 11.6781C9.76017 11.6809 9.73583 11.6836 9.71119 11.6861M9.78422 11.6781C9.88142 11.6573 9.97794 11.5974 10.0685 11.5183C10.4973 11.1441 10.5244 10.5133 10.1523 10.0954C10.066 9.99846 9.96501 9.9176 9.85269 9.85061C7.9878 8.73831 5.08626 9.58548 3.33331 10.8286M9.78422 11.6781C9.75989 11.6834 9.73552 11.6861 9.71119 11.6861M9.71119 11.6861C9.36228 11.7219 8.95409 11.7312 8.50116 11.6884" stroke="#838589" stroke-linecap="round"/>
<rect x="1.33331" y="9.33334" width="2" height="5.33333" rx="1" stroke="#838589"/>
</svg>
