<svg width="37" height="37" viewBox="0 0 37 37" fill="none" xmlns="http://www.w3.org/2000/svg">
<path d="M27.75 18.4999H26.5145C25.2354 18.4999 24.5959 18.4999 24.0658 18.8001C23.5356 19.1003 23.2066 19.6487 22.5485 20.7455L22.5009 20.8248C21.8879 21.8465 21.5814 22.3573 21.1354 22.349C20.6894 22.3406 20.4023 21.8186 19.8281 20.7746L17.2269 16.045C16.6915 15.0716 16.4238 14.5848 15.9963 14.5617C15.5687 14.5387 15.2502 14.9937 14.6131 15.9039L14.1768 16.5272C13.5001 17.4939 13.1617 17.9772 12.6598 18.2386C12.1578 18.4999 11.5678 18.4999 10.3878 18.4999H9.25" stroke="#0D9D57" stroke-width="1.5" stroke-linecap="round"/>
<path d="M13.816 29.8632L14.29 29.282L13.816 29.8632ZM18.5 8.47727L17.951 8.98816C18.0928 9.14065 18.2918 9.22727 18.5 9.22727C18.7083 9.22727 18.9072 9.14065 19.0491 8.98816L18.5 8.47727ZM23.1841 29.8632L23.658 30.4445L23.1841 29.8632ZM13.816 29.8632L14.29 29.282C12.0433 27.4498 9.40763 25.0378 7.33999 22.3879C5.25812 19.7197 3.83337 16.9131 3.83337 14.2765H3.08337H2.33337C2.33337 17.4172 4.00693 20.5545 6.15739 23.3106C8.32207 26.0849 11.0528 28.5776 13.3421 30.4444L13.816 29.8632ZM3.08337 14.2765H3.83337C3.83337 9.94576 5.83609 6.95545 8.47832 5.8562C11.1001 4.76545 14.6342 5.42351 17.951 8.98816L18.5 8.47727L19.0491 7.96637C15.4286 4.07533 11.2544 3.07665 7.90215 4.47127C4.57036 5.85739 2.33337 9.49455 2.33337 14.2765H3.08337ZM23.1841 29.8632L23.658 30.4445C25.9473 28.5776 28.678 26.085 30.8427 23.3107C32.9932 20.5546 34.6667 17.4173 34.6667 14.2765H33.9167H33.1667C33.1667 16.9131 31.742 19.7197 29.6601 22.3879C27.5925 25.0379 24.9568 27.4499 22.7101 29.282L23.1841 29.8632ZM33.9167 14.2765H34.6667C34.6667 9.49439 32.4297 5.85724 29.0979 4.47115C25.7457 3.07658 21.5714 4.07533 17.951 7.96637L18.5 8.47727L19.0491 8.98816C22.3659 5.4235 25.9 4.76538 28.5218 5.85609C31.164 6.95529 33.1667 9.94558 33.1667 14.2765H33.9167ZM13.816 29.8632L13.3421 30.4444C15.3345 32.0692 16.5775 33.125 18.5001 33.125L18.5001 32.375L18.5001 31.625C17.215 31.625 16.4046 31.0063 14.29 29.282L13.816 29.8632ZM23.1841 29.8632L22.7101 29.282C20.5956 31.0063 19.7851 31.625 18.5001 31.625L18.5001 32.375L18.5001 33.125C20.4226 33.125 21.6656 32.0692 23.658 30.4445L23.1841 29.8632Z" fill="#0D9D57"/>
</svg>
