<svg width="19" height="19" viewBox="0 0 19 19" fill="none" xmlns="http://www.w3.org/2000/svg">
<path d="M18.9993 9.61132C18.9993 10.9102 19.0037 12.2094 18.9983 13.5083C18.9884 16.0394 17.2385 18.2502 14.7807 18.8445C14.3559 18.9473 13.9245 19 13.4864 19C10.829 18.999 8.1715 19.0003 5.51403 18.9983C2.80019 18.9964 0.473661 17.0114 0.0704312 14.3254C-0.0078272 13.8044 0.00510904 13.2672 0.00378263 12.7377C-0.00218623 10.3455 0.000135725 7.9533 0.00245695 5.56145C0.00510977 3.04359 1.59747 0.917015 4.01154 0.208378C4.47711 0.071758 4.95462 0.00278357 5.44108 0.00278357C8.13403 0.00245197 10.8273 -0.00351707 13.5206 0.00311499C16.0259 0.00908385 18.2178 1.73806 18.8342 4.1717C18.9897 4.7855 19.0027 5.40825 19.0007 6.03498C18.9967 7.22709 18.9993 8.4192 18.9993 9.61132ZM17.535 9.5125C17.5356 9.5125 17.5366 9.5125 17.5373 9.5125C17.5373 8.20565 17.5373 6.8988 17.5373 5.59196C17.537 3.23824 15.7655 1.46283 13.4125 1.46118C10.9493 1.45952 8.4862 1.46084 6.02305 1.46084C5.56378 1.46084 5.10616 1.45918 4.6512 1.5517C2.95372 1.89657 1.59912 3.41796 1.48406 5.14396C1.45123 5.63705 1.46316 6.13313 1.4625 6.62822C1.46051 8.93319 1.45686 11.2378 1.46383 13.5425C1.46648 14.3682 1.70656 15.1315 2.18871 15.8027C3.03662 16.9825 4.20353 17.5439 5.65164 17.5373C6.43953 17.5337 7.22776 17.5353 8.01565 17.535C9.84511 17.5346 11.6746 17.5353 13.5043 17.5343C14.1742 17.534 14.8132 17.3881 15.3958 17.0581C16.7822 16.2726 17.5081 15.0758 17.5313 13.4801C17.5502 12.158 17.535 10.8353 17.535 9.5125Z" fill="#0D9D57"/>
<path d="M14.6155 9.49449C14.6179 12.2508 12.4094 14.5581 9.58248 14.6164C6.80231 14.6738 4.44163 12.4027 4.38393 9.62382C4.3259 6.81779 6.53239 4.46573 9.35765 4.38681C12.2651 4.30557 14.6142 6.65928 14.6155 9.49449ZM5.84928 9.50145C5.87846 11.5939 7.50498 13.1813 9.59076 13.1524C11.5784 13.1249 13.178 11.4569 13.1515 9.43878C13.125 7.40804 11.4663 5.81734 9.40904 5.84951C7.43866 5.88068 5.82209 7.53903 5.84928 9.50145Z" fill="#0D9D57"/>
<path d="M15.3454 2.92578C15.7503 2.92611 16.0769 3.2544 16.0753 3.65829C16.0736 4.06053 15.742 4.38716 15.3375 4.3845C14.9369 4.38185 14.6169 4.05986 14.6152 3.6573C14.6139 3.25142 14.9392 2.92545 15.3454 2.92578Z" fill="#0D9D57"/>
</svg>
