<svg width="25" height="24" viewBox="0 0 25 24" fill="none" xmlns="http://www.w3.org/2000/svg">
<path d="M4.75 10V8C4.75 4.69 5.75 2 10.75 2C15.75 2 16.75 4.69 16.75 8V10" stroke="#292D32" stroke-width="1.5" stroke-linecap="round" stroke-linejoin="round"/>
<path d="M10.75 18.5C12.1307 18.5 13.25 17.3807 13.25 16C13.25 14.6193 12.1307 13.5 10.75 13.5C9.36929 13.5 8.25 14.6193 8.25 16C8.25 17.3807 9.36929 18.5 10.75 18.5Z" stroke="#292D32" stroke-width="1.5" stroke-linecap="round" stroke-linejoin="round"/>
<path d="M15.75 22H5.75C1.75 22 0.75 21 0.75 17V15C0.75 11 1.75 10 5.75 10H15.75C19.75 10 20.75 11 20.75 15V17C20.75 21 19.75 22 15.75 22Z" stroke="#292D32" stroke-width="1.5" stroke-linecap="round" stroke-linejoin="round"/>
</svg>
