<svg width="17" height="16" viewBox="0 0 17 16" fill="none" xmlns="http://www.w3.org/2000/svg">
<path d="M14.7056 4.50668L12.459 13.5267C12.299 14.2 11.699 14.6667 11.0056 14.6667H2.24562C1.23895 14.6667 0.518961 13.68 0.818961 12.7133L3.62562 3.70004C3.81896 3.07338 4.39896 2.63998 5.0523 2.63998H13.2523C13.8856 2.63998 14.4123 3.02665 14.6323 3.55999C14.759 3.84665 14.7856 4.17335 14.7056 4.50668Z" stroke="#838589" stroke-width="1.5" stroke-miterlimit="10"/>
<path d="M10.7523 14.6667H13.939C14.799 14.6667 15.4723 13.94 15.4123 13.08L14.7523 4" stroke="#838589" stroke-width="1.5" stroke-miterlimit="10" stroke-linecap="round" stroke-linejoin="round"/>
<path d="M6.53897 4.25335L7.23231 1.37338" stroke="#838589" stroke-width="1.5" stroke-miterlimit="10" stroke-linecap="round" stroke-linejoin="round"/>
<path d="M11.0056 4.26001L11.6323 1.3667" stroke="#838589" stroke-width="1.5" stroke-miterlimit="10" stroke-linecap="round" stroke-linejoin="round"/>
<path d="M5.21896 8H10.5523" stroke="#838589" stroke-width="1.5" stroke-miterlimit="10" stroke-linecap="round" stroke-linejoin="round"/>
<path d="M4.55231 10.6667H9.88564" stroke="#838589" stroke-width="1.5" stroke-miterlimit="10" stroke-linecap="round" stroke-linejoin="round"/>
</svg>
