<svg width="22" height="25" viewBox="0 0 22 25" fill="none" xmlns="http://www.w3.org/2000/svg">
<g opacity="0.8">
<path d="M0.967773 2.95312H4.69141V21.5801C4.69148 22.1432 5.14878 22.6004 5.71191 22.6006H15.8232V24.0322C15.8232 24.2895 15.6127 24.5 15.3555 24.5H0.967773C0.710528 24.5 0.5 24.2895 0.5 24.0322V3.41992C0.500072 3.16275 0.710577 2.95312 0.967773 2.95312Z" fill="#0D9D57" stroke="#0D9D57"/>
<mask id="path-2-inside-1_500_8307" fill="white">
<path d="M18.2135 6.51221H7.59823C7.47495 6.51221 7.375 6.61216 7.375 6.73543C7.375 6.85871 7.47495 6.95866 7.59823 6.95866H18.2135C18.3368 6.95866 18.4368 6.85871 18.4368 6.73543C18.4368 6.61216 18.3368 6.51221 18.2135 6.51221Z"/>
</mask>
<path d="M18.2135 6.51221H7.59823C7.47495 6.51221 7.375 6.61216 7.375 6.73543C7.375 6.85871 7.47495 6.95866 7.59823 6.95866H18.2135C18.3368 6.95866 18.4368 6.85871 18.4368 6.73543C18.4368 6.61216 18.3368 6.51221 18.2135 6.51221Z" fill="#0D9D57"/>
<path d="M18.4368 6.73543L19.4368 6.73543L18.4368 6.73543ZM18.2135 6.51221V5.51221H7.59823V6.51221V7.51221H18.2135V6.51221ZM7.59823 6.51221V5.51221C6.92266 5.51221 6.375 6.05988 6.375 6.73543H7.375H8.375C8.375 7.16444 8.02724 7.51221 7.59823 7.51221V6.51221ZM7.375 6.73543H6.375C6.375 7.411 6.92266 7.95866 7.59823 7.95866V6.95866V5.95866C8.02723 5.95866 8.375 6.30643 8.375 6.73543H7.375ZM7.59823 6.95866V7.95866H18.2135V6.95866V5.95866H7.59823V6.95866ZM18.2135 6.95866V7.95866C18.8891 7.95866 19.4368 7.411 19.4368 6.73543H18.4368H17.4368C17.4368 6.30643 17.7845 5.95866 18.2135 5.95866V6.95866ZM18.4368 6.73543L19.4368 6.73543C19.4368 6.05992 18.8891 5.51221 18.2135 5.51221V6.51221V7.51221C17.7845 7.51221 17.4368 7.1644 17.4368 6.73543L18.4368 6.73543Z" fill="#0D9D57" mask="url(#path-2-inside-1_500_8307)"/>
<mask id="path-4-inside-2_500_8307" fill="white">
<path d="M18.2135 9.49219H7.59823C7.47495 9.49219 7.375 9.59214 7.375 9.71541C7.375 9.83869 7.47495 9.93864 7.59823 9.93864H18.2135C18.3368 9.93864 18.4368 9.83869 18.4368 9.71541C18.4368 9.59212 18.3368 9.49219 18.2135 9.49219Z"/>
</mask>
<path d="M18.2135 9.49219H7.59823C7.47495 9.49219 7.375 9.59214 7.375 9.71541C7.375 9.83869 7.47495 9.93864 7.59823 9.93864H18.2135C18.3368 9.93864 18.4368 9.83869 18.4368 9.71541C18.4368 9.59212 18.3368 9.49219 18.2135 9.49219Z" fill="#0D9D57"/>
<path d="M18.4368 9.71541L19.4368 9.71541L18.4368 9.71541ZM18.2135 9.49219V8.49219H7.59823V9.49219V10.4922H18.2135V9.49219ZM7.59823 9.49219V8.49219C6.92266 8.49219 6.375 9.03985 6.375 9.71541H7.375H8.375C8.375 10.1444 8.02723 10.4922 7.59823 10.4922V9.49219ZM7.375 9.71541H6.375C6.375 10.391 6.92266 10.9386 7.59823 10.9386V9.93864V8.93864C8.02723 8.93864 8.375 9.28641 8.375 9.71541H7.375ZM7.59823 9.93864V10.9386H18.2135V9.93864V8.93864H7.59823V9.93864ZM18.2135 9.93864V10.9386C18.8891 10.9386 19.4368 10.391 19.4368 9.71541H18.4368H17.4368C17.4368 9.28641 17.7845 8.93864 18.2135 8.93864V9.93864ZM18.4368 9.71541L19.4368 9.71541C19.4368 9.03984 18.8891 8.49219 18.2135 8.49219V9.49219V10.4922C17.7845 10.4922 17.4368 10.1444 17.4368 9.71541L18.4368 9.71541Z" fill="#0D9D57" mask="url(#path-4-inside-2_500_8307)"/>
<mask id="path-6-inside-3_500_8307" fill="white">
<path d="M18.2135 12.4727H7.59823C7.47495 12.4727 7.375 12.5726 7.375 12.6959C7.375 12.8192 7.47495 12.9191 7.59823 12.9191H18.2135C18.3368 12.9191 18.4368 12.8192 18.4368 12.6959C18.4368 12.5726 18.3368 12.4727 18.2135 12.4727Z"/>
</mask>
<path d="M18.2135 12.4727H7.59823C7.47495 12.4727 7.375 12.5726 7.375 12.6959C7.375 12.8192 7.47495 12.9191 7.59823 12.9191H18.2135C18.3368 12.9191 18.4368 12.8192 18.4368 12.6959C18.4368 12.5726 18.3368 12.4727 18.2135 12.4727Z" fill="#0D9D57"/>
<path d="M18.4368 12.6959L19.4368 12.6959L18.4368 12.6959ZM18.2135 12.4727V11.4727H7.59823V12.4727V13.4727H18.2135V12.4727ZM7.59823 12.4727V11.4727C6.92266 11.4727 6.375 12.0203 6.375 12.6959H7.375H8.375C8.375 13.1249 8.02723 13.4727 7.59823 13.4727V12.4727ZM7.375 12.6959H6.375C6.375 13.3714 6.92265 13.9191 7.59823 13.9191V12.9191V11.9191C8.02724 11.9191 8.375 12.2669 8.375 12.6959H7.375ZM7.59823 12.9191V13.9191H18.2135V12.9191V11.9191H7.59823V12.9191ZM18.2135 12.9191V13.9191C18.8891 13.9191 19.4368 13.3714 19.4368 12.6959H18.4368H17.4368C17.4368 12.2669 17.7845 11.9191 18.2135 11.9191V12.9191ZM18.4368 12.6959L19.4368 12.6959C19.4368 12.0204 18.8891 11.4727 18.2135 11.4727V12.4727V13.4727C17.7845 13.4727 17.4368 13.1248 17.4368 12.6959L18.4368 12.6959Z" fill="#0D9D57" mask="url(#path-6-inside-3_500_8307)"/>
<mask id="path-8-inside-4_500_8307" fill="white">
<path d="M18.2135 15.4531H7.59823C7.47495 15.4531 7.375 15.5531 7.375 15.6764C7.375 15.7996 7.47495 15.8996 7.59823 15.8996H18.2135C18.3368 15.8996 18.4368 15.7996 18.4368 15.6764C18.4368 15.5531 18.3368 15.4531 18.2135 15.4531Z"/>
</mask>
<path d="M18.2135 15.4531H7.59823C7.47495 15.4531 7.375 15.5531 7.375 15.6764C7.375 15.7996 7.47495 15.8996 7.59823 15.8996H18.2135C18.3368 15.8996 18.4368 15.7996 18.4368 15.6764C18.4368 15.5531 18.3368 15.4531 18.2135 15.4531Z" fill="#0D9D57"/>
<path d="M18.4368 15.6764L19.4368 15.6764L18.4368 15.6764ZM18.2135 15.4531V14.4531H7.59823V15.4531V16.4531H18.2135V15.4531ZM7.59823 15.4531V14.4531C6.92266 14.4531 6.375 15.0008 6.375 15.6764H7.375H8.375C8.375 16.1054 8.02723 16.4531 7.59823 16.4531V15.4531ZM7.375 15.6764H6.375C6.375 16.3519 6.92265 16.8996 7.59823 16.8996V15.8996V14.8996C8.02724 14.8996 8.375 15.2474 8.375 15.6764H7.375ZM7.59823 15.8996V16.8996H18.2135V15.8996V14.8996H7.59823V15.8996ZM18.2135 15.8996V16.8996C18.8891 16.8996 19.4368 16.3519 19.4368 15.6764H18.4368H17.4368C17.4368 15.2474 17.7845 14.8996 18.2135 14.8996V15.8996ZM18.4368 15.6764L19.4368 15.6764C19.4368 15.0008 18.8891 14.4531 18.2135 14.4531V15.4531V16.4531C17.7845 16.4531 17.4368 16.1053 17.4368 15.6764L18.4368 15.6764Z" fill="#0D9D57" mask="url(#path-8-inside-4_500_8307)"/>
<mask id="path-10-inside-5_500_8307" fill="white">
<path d="M13.2114 18.4331H7.59823C7.47495 18.4331 7.375 18.5331 7.375 18.6563C7.375 18.7796 7.47495 18.8796 7.59823 18.8796H13.2114C13.3347 18.8796 13.4346 18.7796 13.4346 18.6563C13.4346 18.5331 13.3347 18.4331 13.2114 18.4331Z"/>
</mask>
<path d="M13.2114 18.4331H7.59823C7.47495 18.4331 7.375 18.5331 7.375 18.6563C7.375 18.7796 7.47495 18.8796 7.59823 18.8796H13.2114C13.3347 18.8796 13.4346 18.7796 13.4346 18.6563C13.4346 18.5331 13.3347 18.4331 13.2114 18.4331Z" fill="#0D9D57"/>
<path d="M13.2114 18.4331V17.4331H7.59823V18.4331V19.4331H13.2114V18.4331ZM7.59823 18.4331V17.4331C6.92266 17.4331 6.375 17.9808 6.375 18.6563H7.375H8.375C8.375 19.0853 8.02723 19.4331 7.59823 19.4331V18.4331ZM7.375 18.6563H6.375C6.375 19.3319 6.92265 19.8796 7.59823 19.8796V18.8796V17.8796C8.02724 17.8796 8.375 18.2273 8.375 18.6563H7.375ZM7.59823 18.8796V19.8796H13.2114V18.8796V17.8796H7.59823V18.8796ZM13.2114 18.8796V19.8796C13.887 19.8796 14.4346 19.3319 14.4346 18.6563H13.4346H12.4346C12.4346 18.2273 12.7824 17.8796 13.2114 17.8796V18.8796ZM13.4346 18.6563H14.4346C14.4346 17.9808 13.887 17.4331 13.2114 17.4331V18.4331V19.4331C12.7824 19.4331 12.4346 19.0853 12.4346 18.6563H13.4346Z" fill="#0D9D57" mask="url(#path-10-inside-5_500_8307)"/>
</g>
</svg>
