<svg width="22" height="22" viewBox="0 0 22 22" fill="none" xmlns="http://www.w3.org/2000/svg">
<path d="M9.39708 2.00684C9.17673 2.00684 8.99805 2.18549 8.99805 2.40585V11.3088C8.99805 11.5292 9.17671 11.7078 9.39708 11.7078H18.094C18.3144 11.7078 18.493 11.5292 18.493 11.3088C18.493 11.0884 18.3144 10.9097 18.094 10.9097H9.7961V2.40587C9.7961 2.18549 9.61747 2.00684 9.39708 2.00684Z" fill="#0D9D57"/>
<path d="M13.4725 5.73346C13.3838 5.66667 13.2714 5.63981 13.1621 5.65934C13.0529 5.67885 12.9567 5.74299 12.8967 5.83631L10.6884 9.27062C10.5693 9.45601 10.6229 9.70288 10.8083 9.82209C10.8751 9.86503 10.9498 9.88552 11.0237 9.88552C11.1549 9.88552 11.2835 9.82084 11.3597 9.70225L13.3355 6.6295L14.8043 7.73629C14.8905 7.80126 14.9994 7.82853 15.106 7.81185C15.2127 7.79519 15.3081 7.73604 15.3703 7.64789L17.4987 4.63584L17.4018 5.48671C17.3769 5.70566 17.5342 5.9034 17.7532 5.92832C17.7685 5.93007 17.7837 5.93093 17.7988 5.93093C17.999 5.93093 18.1715 5.78062 18.1948 5.57703L18.4504 3.33286C18.4665 3.19122 18.4059 3.05174 18.2913 2.96694C18.1767 2.88215 18.0255 2.86492 17.8948 2.92177L15.8234 3.82255C15.6213 3.91045 15.5287 4.14551 15.6166 4.34762C15.7045 4.54971 15.9396 4.64232 16.1417 4.55442L16.7731 4.27982L14.956 6.85133L13.4725 5.73346Z" fill="#0D9D57"/>
<path d="M5.17408 13.2325C4.87007 13.3611 4.59711 13.545 4.36283 13.7793C4.12855 14.0136 3.94456 14.2866 3.81597 14.5906C3.68277 14.9055 3.61523 15.2398 3.61523 15.5842C3.61523 15.9287 3.68277 16.263 3.81597 16.578C3.94456 16.8819 4.12855 17.1549 4.36283 17.3892C4.59711 17.6234 4.87007 17.8074 5.17408 17.936C5.48903 18.0692 5.82335 18.1368 6.16771 18.1368C6.51217 18.1368 6.84649 18.0692 7.16143 17.936C7.4654 17.8074 7.73836 17.6234 7.97264 17.3892C8.20692 17.1549 8.39095 16.8819 8.51954 16.578C8.6527 16.263 8.72024 15.9287 8.72024 15.5842C8.72024 15.2398 8.6527 14.9055 8.51954 14.5906C8.39095 14.2866 8.20694 14.0136 7.97264 13.7793C7.73836 13.5451 7.4654 13.3611 7.16143 13.2325C6.84649 13.0993 6.51217 13.0317 6.16771 13.0317C5.82333 13.0317 5.48903 13.0993 5.17408 13.2325ZM7.92219 15.5842C7.92219 16.5517 7.13516 17.3387 6.16771 17.3387C5.20031 17.3387 4.41327 16.5517 4.41327 15.5842C4.41327 14.6168 5.2003 13.8298 6.16771 13.8298C7.13516 13.8298 7.92219 14.6168 7.92219 15.5842Z" fill="#0D9D57"/>
<path d="M12.6654 13.2325C12.3504 13.0993 12.0161 13.0317 11.6717 13.0317C11.3273 13.0317 10.993 13.0993 10.678 13.2325C10.374 13.3611 10.1011 13.545 9.86678 13.7793C9.6325 14.0136 9.44852 14.2866 9.31993 14.5906C9.18667 14.9055 9.11914 15.2398 9.11914 15.5842C9.11914 15.9287 9.18667 16.263 9.31993 16.578C9.44852 16.8819 9.6325 17.1549 9.86678 17.3892C10.1011 17.6234 10.374 17.8074 10.678 17.936C10.993 18.0692 11.3273 18.1368 11.6717 18.1368C12.0161 18.1368 12.3504 18.0692 12.6654 17.936C12.9694 17.8074 13.2423 17.6234 13.4766 17.3892C13.7109 17.1549 13.8949 16.8819 14.0234 16.578C14.1567 16.263 14.2242 15.9287 14.2242 15.5842C14.2242 15.2398 14.1567 14.9055 14.0234 14.5906C13.8949 14.2866 13.7109 14.0136 13.4766 13.7793C13.2423 13.5451 12.9694 13.3611 12.6654 13.2325ZM11.6717 17.3387C10.7043 17.3387 9.91724 16.5517 9.91724 15.5842C9.91724 14.6168 10.7043 13.8298 11.6717 13.8298C12.6391 13.8298 13.4261 14.6168 13.4261 15.5842C13.4261 16.5517 12.6391 17.3387 11.6717 17.3387Z" fill="#0D9D57"/>
<path d="M17.1756 13.0317C16.8312 13.0317 16.4968 13.0993 16.1819 13.2325C15.8779 13.3611 15.605 13.545 15.3707 13.7793C15.1364 14.0136 14.9524 14.2866 14.8238 14.5906C14.6906 14.9055 14.623 15.2398 14.623 15.5842C14.623 15.9287 14.6906 16.263 14.8238 16.578C14.9524 16.8819 15.1364 17.1549 15.3707 17.3892C15.605 17.6234 15.8779 17.8074 16.1819 17.936C16.4968 18.0692 16.8312 18.1368 17.1756 18.1368C17.52 18.1368 17.8543 18.0692 18.1693 17.936C18.4733 17.8074 18.7462 17.6234 18.9805 17.3892C19.2147 17.1549 19.3988 16.8819 19.5274 16.578C19.6606 16.263 19.7281 15.9287 19.7281 15.5842C19.7281 15.2398 19.6606 14.9055 19.5274 14.5906C19.3988 14.2866 19.2148 14.0136 18.9805 13.7793C18.7462 13.5451 18.4733 13.3611 18.1693 13.2325C17.8543 13.0993 17.52 13.0317 17.1756 13.0317ZM18.9301 15.5842C18.9301 16.5517 18.143 17.3387 17.1756 17.3387C16.2082 17.3387 15.4211 16.5517 15.4211 15.5842C15.4211 14.6168 16.2082 13.8298 17.1756 13.8298C18.143 13.8298 18.9301 14.6168 18.9301 15.5842Z" fill="#0D9D57"/>
<path d="M19.403 19.2871C19.1139 18.9979 18.7769 18.7707 18.4017 18.612C18.013 18.4476 17.6003 18.3643 17.1751 18.3643C16.75 18.3643 16.3373 18.4476 15.9486 18.612C15.5734 18.7707 15.2365 18.9979 14.9472 19.2871C14.7393 19.495 14.5649 19.7284 14.4235 19.9822C14.2821 19.7284 14.1076 19.495 13.8996 19.2871C13.6104 18.9979 13.2735 18.7707 12.8983 18.612C12.5096 18.4476 12.0969 18.3643 11.6717 18.3643C11.2465 18.3643 10.8339 18.4476 10.4452 18.612C10.0699 18.7707 9.73303 18.9979 9.44382 19.2871C9.2359 19.495 9.06143 19.7284 8.92004 19.9822C8.77865 19.7284 8.60418 19.495 8.39622 19.2871C8.107 18.9979 7.77008 18.7707 7.39487 18.612C7.00618 18.4476 6.59349 18.3643 6.16828 18.3643C5.74311 18.3643 5.33047 18.4476 4.94178 18.612C4.56652 18.7707 4.22965 18.9979 3.94039 19.2871C3.65117 19.5763 3.42402 19.9132 3.26535 20.2885C3.10092 20.6772 3.01758 21.0898 3.01758 21.515C3.01758 21.7354 3.1962 21.9141 3.41659 21.9141C3.63694 21.9141 3.81561 21.7354 3.81561 21.515C3.81561 20.2177 4.87102 19.1623 6.16826 19.1623C7.4656 19.1623 8.52101 20.2177 8.52101 21.515C8.52101 21.7354 8.69965 21.9141 8.92004 21.9141C9.14039 21.9141 9.31906 21.7354 9.31906 21.515C9.31906 20.2177 10.3745 19.1623 11.6717 19.1623C12.969 19.1623 14.0244 20.2177 14.0244 21.515C14.0244 21.7354 14.203 21.9141 14.4235 21.9141C14.6438 21.9141 14.8225 21.7354 14.8225 21.515C14.8225 20.2177 15.8779 19.1623 17.1751 19.1623C18.4724 19.1623 19.5278 20.2177 19.5278 21.515C19.5278 21.7354 19.7065 21.9141 19.9269 21.9141C20.1472 21.9141 20.3259 21.7354 20.3259 21.515C20.3259 21.0898 20.2425 20.6772 20.0782 20.2885C19.9194 19.9132 19.6923 19.5763 19.403 19.2871Z" fill="#0D9D57"/>
<path d="M6.06267 6.47702C5.83784 6.25216 5.5759 6.0756 5.28418 5.95219C4.98194 5.82436 4.66106 5.75952 4.33053 5.75952C4 5.75952 3.67917 5.82434 3.37689 5.95219C3.08516 6.0756 2.82323 6.25216 2.5984 6.47702C2.37353 6.70184 2.19695 6.96378 2.07352 7.25553C1.94571 7.55782 1.88086 7.87865 1.88086 8.20919C1.88086 8.53971 1.9457 8.86057 2.07352 9.16284C2.19695 9.4546 2.37353 9.71653 2.5984 9.94137C2.82323 10.1662 3.08516 10.3428 3.37689 10.4662C3.67917 10.594 4 10.6589 4.33053 10.6589C4.66105 10.6589 4.98193 10.594 5.28418 10.4662C5.5759 10.3428 5.83784 10.1662 6.06267 9.94137C6.28754 9.71653 6.46412 9.4546 6.58754 9.16284C6.71536 8.86057 6.78021 8.53972 6.78021 8.20919C6.78021 7.87867 6.71536 7.55783 6.58754 7.25553C6.46412 6.96378 6.28754 6.70184 6.06267 6.47702ZM4.33053 9.86077C3.41984 9.86077 2.67891 9.11987 2.67891 8.20917C2.67891 7.29849 3.41984 6.55757 4.33053 6.55757C5.24121 6.55757 5.98214 7.29847 5.98214 8.20917C5.98216 9.11987 5.24123 9.86077 4.33053 9.86077Z" fill="#0D9D57"/>
<path d="M5.46057 12.4079C5.66355 12.4938 5.89765 12.3988 5.98352 12.1958C6.06939 11.9928 5.97442 11.7587 5.77145 11.6729C5.31485 11.4798 4.83001 11.3818 4.33049 11.3818C3.83097 11.3818 3.34613 11.4798 2.88953 11.6729C2.44875 11.8593 2.05292 12.1262 1.71307 12.466C1.37326 12.8058 1.10645 13.2016 0.91995 13.6425C0.726835 14.0991 0.628906 14.5839 0.628906 15.0834C0.628906 15.3038 0.807574 15.4825 1.02792 15.4825C1.24832 15.4825 1.42694 15.3038 1.42694 15.0834C1.42694 13.4824 2.72948 12.1799 4.33046 12.1799C4.72261 12.1799 5.10286 12.2566 5.46057 12.4079Z" fill="#0D9D57"/>
<path d="M21.2631 0H0.399017C0.178622 0 0 0.178653 0 0.399017V12.1548C0 12.3752 0.178622 12.5538 0.399017 12.5538C0.619411 12.5538 0.79808 12.3752 0.79808 12.1548V0.798049H20.864V15.0834C20.864 15.3037 21.0427 15.4824 21.2631 15.4824C21.4834 15.4824 21.6621 15.3037 21.6621 15.0834V0.399017C21.6621 0.178653 21.4835 0 21.2631 0Z" fill="#0D9D57"/>
</svg>
