<svg width="22" height="22" viewBox="0 0 22 22" fill="none" xmlns="http://www.w3.org/2000/svg">
<path d="M11 22C9.51523 22 8.0746 21.7091 6.71812 21.1354C5.40819 20.5813 4.23186 19.7882 3.22178 18.7782C2.21173 17.7681 1.41869 16.5918 0.864642 15.2819C0.290903 13.9254 0 12.4848 0 11C0 9.51521 0.290903 8.0746 0.864642 6.71812C1.41869 5.40819 2.21175 4.23186 3.22178 3.22178C4.23186 2.21173 5.40816 1.41869 6.71812 0.864642C8.0746 0.290903 9.51521 0 11 0C12.4848 0 13.9254 0.290903 15.2819 0.864642C16.5918 1.41869 17.7681 2.21175 18.7782 3.22178C19.7883 4.23186 20.5813 5.40816 21.1354 6.71812C21.7091 8.0746 22 9.51521 22 11C22 12.7604 21.5754 14.5052 20.7705 16.058L21.3707 20.2891C21.4134 20.5898 21.3149 20.8854 21.1001 21.1002C20.8853 21.315 20.5894 21.4135 20.2887 21.3707L16.058 20.7705C14.5052 21.5754 12.7604 22 11 22ZM11 1.03774C9.65486 1.03774 8.35022 1.30106 7.12237 1.8204C5.93611 2.32214 4.87066 3.04051 3.95561 3.95561C3.04054 4.87066 2.32214 5.93614 1.8204 7.12237C1.30106 8.35022 1.03774 9.65486 1.03774 11C1.03774 12.3451 1.30106 13.6498 1.8204 14.8776C2.32214 16.0639 3.04051 17.1293 3.95561 18.0444C4.87066 18.9595 5.93614 19.6779 7.12237 20.1796C8.35022 20.6989 9.65486 20.9623 11 20.9623C12.6469 20.9623 14.2784 20.5522 15.7181 19.7764L15.8683 19.6955L20.3281 20.3281L19.6954 15.8683L19.7764 15.7181C20.5521 14.2785 20.9622 12.647 20.9622 11C20.9622 9.65489 20.6989 8.35025 20.1796 7.1224C19.6778 5.93613 18.9595 4.87069 18.0444 3.95564C17.1293 3.04057 16.0638 2.32217 14.8776 1.82042C13.6498 1.30106 12.3451 1.03774 11 1.03774ZM20.3432 20.4346C20.3432 20.4347 20.3433 20.4349 20.3433 20.435L20.3432 20.4346Z" fill="#0D9D57"/>
<path d="M10.8217 14.0889C10.6255 14.0889 10.4599 14.1554 10.3252 14.2882C10.1904 14.4209 10.123 14.5874 10.123 14.7877C10.123 14.9839 10.1904 15.1494 10.3252 15.2843C10.4599 15.4191 10.6254 15.4865 10.8217 15.4865C11.0219 15.4865 11.1884 15.4192 11.3212 15.2843C11.4539 15.1494 11.5205 14.9839 11.5205 14.7877C11.5205 14.5874 11.4539 14.4209 11.3212 14.2882C11.1884 14.1554 11.0219 14.0889 10.8217 14.0889Z" fill="#0D9D57"/>
<path d="M13.3084 7.59519C13.0898 7.26218 12.7853 6.99865 12.3952 6.80456C12.0049 6.61048 11.5523 6.51343 11.0375 6.51343C10.4655 6.51343 9.9874 6.61762 9.60328 6.82597C9.21916 7.03432 8.9259 7.31331 8.72369 7.66272C8.52149 8.01212 8.40399 8.3951 8.37141 8.81183L8.36523 8.8915H9.41342L9.41939 8.83035C9.44795 8.55657 9.52763 8.31852 9.65844 8.11631C9.78924 7.91411 9.96789 7.75573 10.1948 7.64132C10.4215 7.52691 10.6881 7.4696 10.9947 7.4696C11.297 7.4696 11.5606 7.52595 11.7853 7.63823C12.0099 7.75051 12.1847 7.90584 12.3093 8.10397C12.4339 8.3023 12.4963 8.52995 12.4963 8.78734V8.79351C12.4963 9.01017 12.4635 9.20233 12.3982 9.3698C12.3328 9.53726 12.2277 9.6916 12.0826 9.83244C11.9375 9.97347 11.7463 10.1176 11.5094 10.2646C11.2316 10.4321 11.0016 10.6078 10.8199 10.7917C10.6381 10.9756 10.5033 11.1768 10.4155 11.3954C10.3275 11.6142 10.2837 11.8582 10.2837 12.1278V12.6917H11.3562V12.2933C11.3562 12.0768 11.3857 11.8887 11.4452 11.7293C11.5044 11.57 11.6064 11.4209 11.7515 11.2819C11.8966 11.143 12.0978 10.9981 12.3554 10.8469C12.7474 10.6099 13.059 10.3188 13.29 9.97344C13.5207 9.62809 13.6363 9.21636 13.6363 8.73828V8.73211C13.6364 8.30728 13.527 7.92817 13.3084 7.59519Z" fill="#0D9D57"/>
</svg>
