<svg width="119" height="81" viewBox="0 0 119 81" fill="none" xmlns="http://www.w3.org/2000/svg">
<path d="M91.0378 0.000198364C106.211 0.000198364 118.403 12.1928 118.403 27.3657C118.403 49.3123 103.23 65.8401 86.4317 80.2002L76.9486 70.7171C82.0966 65.8401 86.7026 60.4211 90.4959 54.7313C75.5939 54.4603 63.6722 42.2678 63.6722 27.3657C63.6722 12.1928 75.8648 0.000198364 91.0378 0.000198364ZM27.3655 0.000198364C42.2675 0.000198364 54.731 12.1928 54.731 27.3657C54.731 49.3123 39.5581 65.8401 22.7594 80.2002L13.2763 70.7171C18.4243 65.8401 23.0303 60.4211 26.8236 54.7313C11.9216 54.4603 -5.34058e-05 42.2678 -5.34058e-05 27.3657C-5.34058e-05 12.1928 12.1925 0.000198364 27.3655 0.000198364Z" fill="#F2F2F2"/>
</svg>
