<svg width="119" height="81" viewBox="0 0 119 81" fill="none" xmlns="http://www.w3.org/2000/svg">
<path d="M27.3655 0.000198364C12.1926 0.000198364 0 12.1928 0 27.3657C0 49.3123 15.173 65.8401 31.9716 80.2002L41.4547 70.7171C36.3068 65.8401 31.7007 60.4211 27.9074 54.7313C42.8095 54.4603 54.7311 42.2678 54.7311 27.3657C54.7311 12.1928 42.5385 0.000198364 27.3655 0.000198364ZM91.0378 0.000198364C76.1358 0.000198364 63.6723 12.1928 63.6723 27.3657C63.6723 49.3123 78.8453 65.8401 95.6439 80.2002L105.127 70.7171C99.9791 65.8401 95.373 60.4211 91.5797 54.7313C106.482 54.4603 118.403 42.2678 118.403 27.3657C118.403 12.1928 106.211 0.000198364 91.0378 0.000198364Z" fill="#F2F2F2"/>
</svg>
