<svg width="31" height="31" viewBox="0 0 31 31" fill="none" xmlns="http://www.w3.org/2000/svg">
<path d="M29.0288 9.34092C28.2678 7.51966 27.1785 5.88406 25.7911 4.47957C24.4037 3.07504 22.788 1.97232 20.9889 1.20201C19.1261 0.404407 17.1475 0 15.1081 0C13.0686 0 11.09 0.404407 9.22727 1.20201C7.4282 1.97236 5.8125 3.07508 4.42505 4.47957C3.03768 5.88406 1.9483 7.51966 1.18739 9.34092C0.399489 11.2266 0 13.2296 0 15.2941C0 17.1372 0.320458 18.9394 0.952431 20.6503C1.56305 22.3034 2.4469 23.8271 3.57941 25.1791C3.72086 25.3481 3.86826 25.5165 4.01755 25.6797C4.37298 26.0682 4.75246 26.4424 5.14538 26.7918L5.14551 26.7919C7.90046 29.24 11.4386 30.5882 15.1081 30.5882C18.7776 30.5882 22.3157 29.24 25.0707 26.7919C25.0707 26.7919 25.0708 26.7918 25.0708 26.7918C25.4637 26.4425 25.8431 26.0683 26.1987 25.6796C26.3481 25.5163 26.4955 25.3479 26.6368 25.1791C27.7693 23.8271 28.6531 22.3034 29.2638 20.6503C29.8958 18.9394 30.2162 17.1373 30.2162 15.2941C30.2162 13.2295 29.8167 11.2266 29.0288 9.34092ZM15.108 30.0424C11.6468 30.0424 8.30703 28.7987 5.67655 26.535C6.73721 24.8934 8.11396 23.5302 9.66972 22.5836C11.3603 21.555 13.19 21.0335 15.108 21.0335C17.0261 21.0335 18.8558 21.555 20.5464 22.5836C22.1022 23.5302 23.4789 24.8934 24.5396 26.535C21.9091 28.7987 18.5693 30.0424 15.108 30.0424ZM28.7587 20.4591C28.1699 22.053 27.3176 23.5222 26.2255 24.8262C26.0892 24.9889 25.9471 25.1513 25.8031 25.3088C25.5308 25.6064 25.2437 25.895 24.9474 26.17C23.8483 24.4894 22.4282 23.0917 20.8241 22.1157C19.0735 21.0506 17.0969 20.4876 15.108 20.4876C13.1192 20.4876 11.1426 21.0506 9.39197 22.1157C7.7879 23.0917 6.36785 24.4894 5.2687 26.1701C4.97235 25.895 4.68536 25.6064 4.41315 25.3088C4.26923 25.1514 4.12709 24.9891 3.99066 24.8261C2.89853 23.5222 2.04621 22.053 1.45747 20.4591C0.848122 18.8095 0.539186 17.0717 0.539186 15.2941C0.539186 13.303 0.924368 11.3715 1.68397 9.55349C2.41774 7.7973 3.46829 6.22006 4.80631 4.86549C6.14441 3.51092 7.7025 2.44747 9.4373 1.70466C11.2332 0.935679 13.1412 0.54579 15.108 0.54579C17.0749 0.54579 18.9829 0.935713 20.7788 1.70466C22.5136 2.44747 24.0717 3.51092 25.4098 4.86549C26.7479 6.22006 27.7984 7.7973 28.5321 9.55349C29.2917 11.3715 29.6769 13.303 29.6769 15.2941C29.677 17.0718 29.368 18.8095 28.7587 20.4591Z" fill="#3C3C3C"/>
<path d="M15.1085 5.84326C11.6552 5.84326 8.8457 8.68731 8.8457 12.1831C8.8457 15.6789 11.6552 18.5229 15.1085 18.5229C18.5617 18.5229 21.3712 15.6789 21.3712 12.1831C21.3712 8.68727 18.5617 5.84326 15.1085 5.84326ZM15.1085 17.9771C11.9525 17.9771 9.38489 15.3779 9.38489 12.1831C9.38489 8.98828 11.9525 6.38909 15.1085 6.38909C18.2644 6.38909 20.832 8.98825 20.832 12.1831C20.832 15.3779 18.2644 17.9771 15.1085 17.9771Z" fill="#3C3C3C"/>
</svg>
