<svg width="16" height="16" viewBox="0 0 16 16" fill="none" xmlns="http://www.w3.org/2000/svg">
<path d="M8.43997 1.67892L8.41997 1.72559L6.48664 6.21225H4.58664C4.13331 6.21225 3.69997 6.30559 3.30664 6.47225L4.47331 3.68559L4.49997 3.61892L4.54664 3.51225C4.55997 3.47225 4.57331 3.43225 4.59331 3.39892C5.46664 1.37892 6.45331 0.91892 8.43997 1.67892Z" stroke="#292D32" stroke-linecap="round" stroke-linejoin="round"/>
<path d="M12.033 6.34538C11.733 6.25204 11.413 6.21204 11.093 6.21204H6.48633L8.41966 1.72538L8.43966 1.67871C8.53966 1.71204 8.63299 1.75871 8.73299 1.79871L10.2063 2.41871C11.0263 2.75871 11.5997 3.11204 11.9463 3.53871C12.013 3.61871 12.0663 3.69204 12.113 3.77871C12.173 3.87204 12.2197 3.96538 12.2463 4.06538C12.273 4.12538 12.293 4.18538 12.3063 4.23871C12.4863 4.79871 12.3797 5.48538 12.033 6.34538Z" stroke="#292D32" stroke-linecap="round" stroke-linejoin="round"/>
<path d="M14.3485 9.46574V10.7657C14.3485 10.8991 14.3418 11.0324 14.3351 11.1657C14.2085 13.4924 12.9085 14.6657 10.4418 14.6657H5.2418C5.0818 14.6657 4.9218 14.6524 4.76846 14.6324C2.64846 14.4924 1.51513 13.3591 1.37513 11.2391C1.35513 11.0857 1.3418 10.9257 1.3418 10.7657V9.46574C1.3418 8.12574 2.15513 6.9724 3.31513 6.4724C3.71513 6.30574 4.1418 6.2124 4.59513 6.2124H11.1018C11.4285 6.2124 11.7485 6.25907 12.0418 6.34574C13.3685 6.7524 14.3485 7.9924 14.3485 9.46574Z" stroke="#292D32" stroke-linecap="round" stroke-linejoin="round"/>
<path d="M4.47398 3.68555L3.30732 6.47221C2.14732 6.97221 1.33398 8.12555 1.33398 9.46555V7.51221C1.33398 5.61888 2.68065 4.03888 4.47398 3.68555Z" stroke="#292D32" stroke-linecap="round" stroke-linejoin="round"/>
<path d="M14.3457 7.51161V9.46494C14.3457 7.99827 13.3724 6.75161 12.0391 6.35161C12.3857 5.48494 12.4857 4.80494 12.3191 4.23827C12.3057 4.17827 12.2857 4.11827 12.2591 4.06494C13.4991 4.70494 14.3457 6.01827 14.3457 7.51161Z" stroke="#292D32" stroke-linecap="round" stroke-linejoin="round"/>
</svg>
